<svg id="e8ltpim903ku1" xmlns="http://www.w3.org/2000/svg" xmlns:xlink="http://www.w3.org/1999/xlink" viewBox="0 0 2084 1128" shape-rendering="geometricPrecision" text-rendering="geometricPrecision" width="2084" height="1128"><style><![CDATA[#e8ltpim903ku3_tr {animation: e8ltpim903ku3_tr__tr 3000ms linear 1 normal forwards}@keyframes e8ltpim903ku3_tr__tr { 0% {transform: translate(10156.566874px,2709.210232px) rotate(0deg);animation-timing-function: cubic-bezier(0.420000,0,0.580000,1)} 66.666667% {transform: translate(10156.566874px,2709.210232px) rotate(-3deg)} 100% {transform: translate(10156.566874px,2709.210232px) rotate(-3deg)} }#e8ltpim903ku4_to {animation: e8ltpim903ku4_to__to 3000ms linear 1 normal forwards}@keyframes e8ltpim903ku4_to__to { 0% {transform: translate(-384.922223px,2863.959112px);animation-timing-function: cubic-bezier(0.420000,0,0.580000,1)} 66.666667% {transform: translate(-1370.729553px,2793.544302px)} 100% {transform: translate(-1370.729553px,2793.544302px)} }#e8ltpim903ku5_to {animation: e8ltpim903ku5_to__to 3000ms linear 1 normal forwards}@keyframes e8ltpim903ku5_to__to { 0% {transform: translate(4843.646433px,1431.491373px);animation-timing-function: cubic-bezier(0.420000,0,0.580000,1)} 66.666667% {transform: translate(3036.483830px,1079.417323px)} 100% {transform: translate(3036.483830px,1079.417323px)} }#e8ltpim903ku6_to {animation: e8ltpim903ku6_to__to 3000ms linear 1 normal forwards}@keyframes e8ltpim903ku6_to__to { 0% {transform: translate(8872.855469px,1479.040460px)} 66.666667% {transform: translate(9136.909514px,1506.325304px)} 100% {transform: translate(9136.909514px,1506.325304px)} }#e8ltpim903ku7_to {animation: e8ltpim903ku7_to__to 3000ms linear 1 normal forwards}@keyframes e8ltpim903ku7_to__to { 0% {transform: translate(11390.874652px,1545.692450px);animation-timing-function: cubic-bezier(0.420000,0,0.580000,1)} 66.666667% {transform: translate(10897.970982px,1506.325304px)} 100% {transform: translate(10897.970982px,1506.325304px)} }]]></style><g id="e8ltpim903ku2" transform="matrix(0.10000000000000 0 0 -0.10000000000000 0 1128)"><g id="e8ltpim903ku3_tr" transform="translate(10156.566874,2709.210232) rotate(0)"><path id="e8ltpim903ku3" d="M24516.010891,6185.793125C24072.282091,6066.196185,23629.846961,5886.128883,23094.267593,5607.965214C22835.533598,5473.586631,22770.850100,5435.960627,22478.480686,5250.518182C22129.189794,5028.793518,21980.417748,4918.603080,21255.962564,4350.181670C21087.785467,4217.146872,20791.535044,4008.860067,20609.127578,3894.638271C20199.034197,3639.318962,19901.490104,3494.190092,19490.103053,3353.092579C19202.908319,3253.652427,18910.538906,3181.087991,18493.977175,3104.492199C17920.881378,2999.676903,17768.228321,2962.050900,17433.167799,2847.829104C17173.140135,2759.139238,16900.175771,2631.479584,16686.720226,2497.101000C16561.234238,2417.817636,16117.505438,2100.684178,15854.890434,1903.147660C15751.396836,1825.208081,15585.807080,1701.579784,15486.194492,1626.327777C15386.581905,1551.075770,15217.111138,1420.728544,15109.736531,1336.070036C14752.683619,1056.562582,14294.724449,803.930844,13904.036118,670.896046C13831.590599,646.707901,13697.048922,595.644039,13606.492024,556.674250C13420.203548,478.734672,13355.520050,455.890312,13254.613792,437.077311C13033.396227,395.419950,12717.740754,373.919376,11721.614876,329.574444C11550.850440,322.855514,11382.673344,313.449014,11346.450585,309.417656C11311.521495,305.386299,11101.946960,293.292226,10880.729395,282.541939C9891.071867,231.478077,9263.641931,152.194713,8655.617045,0.346913C8345.136252,-77.592665,8076.052898,-174.345246,7730.643015,-331.568189L7574.108949,-402.788838L16140.791498,-406.820195C20852.337533,-408.163981,24710.061387,-408.163981,24712.648727,-405.476410C24715.236067,-402.788838,24715.236067,1092.844799,24713.942397,2919.049753L24710.061387,6238.200772L24516.010891,6185.793125Z" transform="translate(-14213.828125,-2474.171515)" fill="rgb(109,204,202)" stroke="none" stroke-width="1"/></g><g id="e8ltpim903ku4_to" transform="translate(-384.922223,2863.959112)"><path id="e8ltpim903ku4" d="M37720.977976,5044.734173C37194.271874,4944.944553,36669.101359,4794.699507,36033.368629,4562.604548C35726.251369,4450.481379,35649.472054,4419.086892,35302.429549,4264.356919C34887.821248,4079.353690,34711.228823,3987.412692,33851.300493,3513.131688C33651.674274,3402.129751,33300.025011,3228.338840,33083.507342,3133.034146C32596.726484,2920.000126,32243.541635,2798.907103,31755.225191,2681.177776C31414.325031,2598.206631,31067.282527,2537.660120,30572.823738,2473.749914C29892.559006,2386.293842,29711.359822,2354.899355,29313.642970,2259.594662C29004.990123,2185.593370,28680.981413,2079.076360,28427.609673,1966.953191C28278.657802,1900.800522,27751.951700,1636.189844,27440.227680,1471.368786C27317.380776,1406.337348,27120.825730,1303.184032,27002.585584,1240.395058C26884.345439,1177.606083,26683.183633,1068.846610,26555.729970,998.209013C26131.908151,764.992822,25588.310600,554.201265,25124.563536,443.199328C25038.570703,423.017158,24878.869728,380.410354,24771.378687,347.894635C24550.254259,282.863197,24473.474944,263.802258,24353.699212,248.105015C24091.113955,213.346832,23716.430897,195.407125,22534.029444,158.406480C22331.332052,152.800321,22131.705833,144.951699,22088.709416,141.588004C22047.248586,138.224309,21798.483605,128.133224,21535.898347,119.163371C20361.174826,76.556566,19616.415469,10.403897,18894.689907,-116.295284C18526.149194,-181.326722,18206.747244,-262.055403,17796.745701,-393.239511L17610.939758,-452.664790L27779.592253,-456.028485C33372.197567,-457.149717,37951.315921,-457.149717,37954.387094,-454.907253C37957.458266,-452.664790,37957.458266,795.266078,37955.922680,2319.019941L37951.315921,5088.462209L37720.977976,5044.734173Z" transform="translate(-14213.828125,-2474.171515)" fill="rgb(17,175,178)" stroke="none" stroke-width="1"/></g><g id="e8ltpim903ku5_to" transform="translate(4843.646433,1431.491373)"><path id="e8ltpim903ku5" d="M33151.697185,6524.001021C32744.666046,6422.499953,32338.821587,6269.678120,31847.536189,6033.602603C31610.200247,5919.556459,31550.866262,5887.623539,31282.676649,5730.239861C30962.273128,5542.063724,30825.804962,5448.545886,30161.264327,4966.130698C30006.995965,4853.225016,29735.246312,4676.453493,29567.924474,4579.514271C29191.747007,4362.826598,28918.810675,4239.656763,28541.446528,4119.908312C28278.003634,4035.514166,28009.814020,3973.929248,27627.703155,3908.922947C27102.004045,3819.966955,26961.975840,3788.034034,26654.625796,3691.094812C26416.103175,3615.824357,26165.713757,3507.480521,25969.911606,3393.434377C25854.803674,3326.147153,25447.772535,3056.998254,25206.876555,2889.350422C25111.942178,2823.203659,24960.047176,2718.281207,24868.672839,2654.415366C24777.298501,2590.549526,24621.843460,2479.924767,24523.349044,2408.075696C24195.825446,2170.859717,23775.740830,1956.452967,23417.363559,1843.547285C23350.909495,1823.018979,23227.494806,1779.681445,23144.427226,1746.608063C22973.545349,1680.461300,22914.211363,1661.073455,22821.650346,1645.106995C22618.728117,1609.752691,22329.178268,1591.505308,21415.434895,1553.870080C21258.793174,1548.167773,21104.524812,1540.184543,21071.297780,1536.763159C21039.257428,1533.341774,20847.015316,1523.077621,20644.093086,1513.953930C19736.283111,1470.616395,19160.743454,1403.329171,18603.003992,1274.457028C18318.200863,1208.310265,18071.371484,1126.197041,17754.528003,992.763053L17610.939758,932.318597L25469.132770,928.897213C29791.020258,927.756752,33329.699141,927.756752,33332.072500,930.037674C33334.445860,932.318597,33334.445860,2201.652176,33333.259180,3751.539268L33329.699141,6568.479017L33151.697185,6524.001021Z" transform="translate(-14213.828125,-2474.171515)" fill="rgb(0,134,143)" stroke="none" stroke-width="1"/></g><g id="e8ltpim903ku6_to" transform="translate(8872.855469,1479.040460)"><path id="e8ltpim903ku6" d="M26471.825017,3931.817811C26239.747769,3877.338146,26008.347130,3795.312584,25728.230568,3668.601454C25592.908558,3607.388347,25559.078055,3590.248677,25406.164183,3505.774591C25223.479469,3404.772965,25145.669312,3354.578218,24766.767683,3095.646778C24678.808376,3035.045803,24523.864673,2940.165488,24428.462656,2888.134347C24213.977269,2771.829445,24058.356957,2705.719290,23843.194960,2641.445528C23692.987528,2596.147830,23540.073656,2563.092752,23322.205219,2528.201282C23022.466965,2480.455059,22942.626979,2463.315389,22767.384975,2411.284248C22631.386354,2370.883598,22488.621633,2312.731147,22376.980974,2251.518041C22311.349799,2215.402308,22079.272551,2070.939377,21941.920710,1980.956111C21887.791905,1945.452509,21801.185819,1889.136451,21749.086845,1854.857111C21696.987870,1820.577772,21608.351953,1761.201059,21552.193319,1722.636802C21365.448944,1595.313540,21125.928985,1480.232900,20921.592749,1419.631925C20883.702586,1408.613566,20813.335141,1385.352586,20765.972437,1367.600785C20668.540589,1332.097183,20634.710087,1321.690955,20581.934503,1313.121120C20466.234183,1294.145057,20301.141330,1284.350960,19780.151589,1264.150635C19690.839062,1261.089980,19602.879755,1256.805062,19583.934674,1254.968669C19565.666202,1253.132276,19456.055374,1247.623096,19340.355055,1242.726048C18822.748364,1219.465067,18494.592488,1183.349334,18176.585763,1114.178524C18014.199350,1078.674923,17873.464459,1034.601486,17692.809575,962.982151L17610.939758,930.539205L22091.451532,928.702812C24555.665346,928.090681,26573.316525,928.090681,26574.669745,929.314943C26576.022965,930.539205,26576.022965,1611.841079,26575.346355,2443.727195L26573.316525,3955.690922L26471.825017,3931.817811Z" transform="translate(-14213.828125,-2474.171515)" fill="rgb(3,94,114)" stroke="none" stroke-width="1"/></g><g id="e8ltpim903ku7_to" transform="translate(11390.874652,1545.692450)"><path id="e8ltpim903ku7" d="M26081.770934,4075.927178C25859.909671,4018.833425,25638.695235,3932.872045,25370.909338,3800.080957C25241.544170,3735.930673,25209.202878,3717.968593,25063.020239,3629.441202C24888.377262,3523.593233,24813.992291,3470.990000,24451.769822,3199.634299C24367.682463,3136.125518,24219.559346,3036.692578,24128.356903,2982.164836C23923.313112,2860.279297,23774.543169,2790.996990,23568.852553,2723.639192C23425.257217,2676.167982,23279.074577,2641.526829,23070.796657,2604.961167C22784.252811,2554.923945,22707.927362,2536.961866,22540.399470,2482.434124C22410.387477,2440.094937,22273.907225,2379.152167,22167.180962,2315.001883C22104.438855,2277.153216,21882.577593,2125.758546,21751.271948,2031.457628C21699.525881,1994.250464,21616.732173,1935.232202,21566.926584,1899.308043C21517.120994,1863.383884,21432.386810,1801.158109,21378.700265,1760.743430C21200.176334,1627.310839,20971.199987,1506.708306,20775.858584,1443.199524C20739.636337,1431.652473,20672.366450,1407.275365,20627.088641,1388.671783C20533.945720,1351.464618,20501.604429,1340.559070,20451.152013,1331.578030C20340.544795,1311.691442,20182.719290,1301.427397,19684.663395,1280.257803C19599.282384,1277.050289,19515.195025,1272.559769,19497.083902,1270.635261C19479.619604,1268.710752,19374.833819,1262.937227,19264.226600,1257.805204C18769.404834,1233.428096,18455.694303,1195.579428,18151.686159,1123.089607C17996.447958,1085.882443,17861.908183,1039.694238,17689.205685,964.638406L17610.939758,930.638756L21894.220458,928.714247C24249.960160,928.072744,26178.794809,928.072744,26180.088461,929.355750C26181.382113,930.638756,26181.382113,1644.631416,26180.735287,2516.433775L26178.794809,4100.945789L26081.770934,4075.927178Z" transform="translate(-14213.828125,-2474.171515)" fill="rgb(6,52,75)" stroke="none" stroke-width="1"/></g></g></svg>