<svg id="eum5gard57kp1" xmlns="http://www.w3.org/2000/svg" xmlns:xlink="http://www.w3.org/1999/xlink" viewBox="0 0 2084 1128" shape-rendering="geometricPrecision" text-rendering="geometricPrecision" width="2084" height="1128"><style><![CDATA[#eum5gard57kp3_tr {animation: eum5gard57kp3_tr__tr 3000ms linear 1 normal forwards}@keyframes eum5gard57kp3_tr__tr { 0% {transform: translate(10866.486984px,1827.627816px) rotate(0deg);animation-timing-function: cubic-bezier(0.420000,0,0.580000,1)} 66.666667% {transform: translate(10866.486984px,1827.627816px) rotate(-3deg)} 100% {transform: translate(10866.486984px,1827.627816px) rotate(-3deg)} }#eum5gard57kp3_ts {animation: eum5gard57kp3_ts__ts 3000ms linear 1 normal forwards}@keyframes eum5gard57kp3_ts__ts { 0% {transform: scale(1,1);animation-timing-function: cubic-bezier(0.420000,0,0.580000,1)} 66.666667% {transform: scale(1,1)} 100% {transform: scale(1,1)} }#eum5gard57kp4_to {animation: eum5gard57kp4_to__to 3000ms linear 1 normal forwards}@keyframes eum5gard57kp4_to__to { 0% {transform: translate(-384.922223px,2863.959112px);animation-timing-function: cubic-bezier(0.420000,0,0.580000,1)} 66.666667% {transform: translate(-3239.079674px,3295.833500px)} 100% {transform: translate(-3239.079674px,3295.833500px)} }#eum5gard57kp4_tr {animation: eum5gard57kp4_tr__tr 3000ms linear 1 normal forwards}@keyframes eum5gard57kp4_tr__tr { 0% {transform: rotate(32400deg);animation-timing-function: cubic-bezier(0.420000,0,0.580000,1)} 66.666667% {transform: rotate(32397deg)} 100% {transform: rotate(32397deg)} }#eum5gard57kp4_ts {animation: eum5gard57kp4_ts__ts 3000ms linear 1 normal forwards}@keyframes eum5gard57kp4_ts__ts { 0% {transform: scale(1,1);animation-timing-function: cubic-bezier(0.420000,0,0.580000,1)} 66.666667% {transform: scale(1,1)} 100% {transform: scale(1,1)} }#eum5gard57kp5_to {animation: eum5gard57kp5_to__to 3000ms linear 1 normal forwards}@keyframes eum5gard57kp5_to__to { 0% {transform: translate(4843.646433px,1431.491373px);animation-timing-function: cubic-bezier(0.420000,0,0.580000,1)} 66.666667% {transform: translate(3036.483830px,1079.417323px)} 100% {transform: translate(3036.483830px,1079.417323px)} }#eum5gard57kp6_to {animation: eum5gard57kp6_to__to 3000ms linear 1 normal forwards}@keyframes eum5gard57kp6_to__to { 0% {transform: translate(8872.855469px,1479.040460px);animation-timing-function: cubic-bezier(0.420000,0,0.580000,1)} 66.666667% {transform: translate(9136.909514px,1506.325304px)} 100% {transform: translate(9136.909514px,1506.325304px)} }#eum5gard57kp7_to {animation: eum5gard57kp7_to__to 3000ms linear 1 normal forwards}@keyframes eum5gard57kp7_to__to { 0% {transform: translate(12341.660522px,1545.692450px);animation-timing-function: cubic-bezier(0.420000,0,0.580000,1)} 66.666667% {transform: translate(11341.671052px,683.624560px)} 100% {transform: translate(11341.671052px,683.624560px)} }#eum5gard57kp7_tr {animation: eum5gard57kp7_tr__tr 3000ms linear 1 normal forwards}@keyframes eum5gard57kp7_tr__tr { 0% {transform: rotate(0deg)} 66.666667% {transform: rotate(5deg)} 100% {transform: rotate(5deg)} }]]></style><g id="eum5gard57kp2" transform="matrix(0.10000000000000 0 0 -0.10000000000000 0 1128)"><g id="eum5gard57kp3_tr" transform="translate(10866.486984,1827.627816) rotate(0)"><g id="eum5gard57kp3_ts" transform="scale(1,1)"><path id="eum5gard57kp3" d="M25724.910469,6953.044136C24977.641334,6819.529497,24232.550827,6618.507455,23330.599160,6307.973405C22894.873717,6157.956956,22785.942356,6115.952351,22293.572605,5908.929651C21705.343257,5661.402510,21454.801127,5538.389022,20234.769887,4903.819443C19951.548349,4755.303158,19452.642717,4522.777662,19145.456279,4395.263680C18454.831452,4110.232427,17953.747193,3948.214662,17260.943738,3790.697391C16777.288497,3679.685219,16284.918746,3598.676336,15583.400783,3513.166960C14618.268927,3396.154130,14361.190915,3354.149524,13796.926466,3226.635543C13359.022396,3127.624686,12899.332054,2985.109060,12539.858563,2835.092611C12328.531723,2746.582906,11581.262589,2392.544086,11139.001264,2172.019906C10964.711087,2085.010366,10685.846803,1946.995233,10518.092508,1862.986021C10350.338212,1778.976810,10064.938047,1633.460854,9884.111988,1538.950491C9282.810877,1226.916277,8511.576843,944.885353,7853.631424,796.369069C7731.628300,769.366108,7505.051069,712.359857,7352.547164,668.855087C7038.824845,581.845547,6929.893484,556.342750,6759.960562,535.340447C6387.415308,488.835348,5855.830267,464.832716,4178.287312,415.327288C3890.708519,407.826466,3607.486981,397.325314,3546.485419,392.824821C3487.662485,388.324327,3134.724876,374.822847,2762.179622,362.821531C1095.529802,305.815280,38.895603,217.305575,-985.059188,47.786988C-1507.929720,-39.222552,-1961.084180,-147.234396,-2542.777647,-322.753641L-2806.391540,-402.262359L11620.477879,-406.762852C19555.038196,-408.263017,26051.704551,-408.263017,26056.061806,-405.262688C26060.419060,-402.262359,26060.419060,1267.420719,26058.240433,3306.144261L26051.704551,7011.550551L25724.910469,6953.044136Z" transform="translate(-14213.828125,-2474.171515)" fill="rgb(109,204,202)" stroke="none" stroke-width="1"/></g></g><g id="eum5gard57kp4_to" transform="translate(-384.922223,2863.959112)"><g id="eum5gard57kp4_tr" transform="rotate(32400)"><g id="eum5gard57kp4_ts" transform="scale(1,1)"><path id="eum5gard57kp4" d="M38497.870592,5297.997802C37951.154337,5189.152566,37406.032007,5025.273221,36746.147081,4772.116323C36427.362092,4649.818305,36347.665845,4615.574860,35987.438808,4446.803594C35557.079074,4245.011864,35373.777705,4144.727489,34481.179737,3627.406871C34273.969495,3506.331833,33908.960683,3316.769905,33684.217266,3212.816589C33178.943059,2980.450354,32812.340323,2848.368494,32305.472191,2719.955575C31951.620854,2629.455041,31591.393817,2563.414111,31078.149985,2493.704241C30372.041236,2398.311787,30183.958093,2364.068342,29771.131532,2260.115026C29450.752619,2179.398334,29114.434456,2063.215216,28851.436841,1940.917198C28696.826121,1868.761367,28150.109866,1580.138044,27826.543103,1400.359957C27699.029107,1329.427106,27495.006715,1216.912929,27372.274494,1148.426039C27249.542273,1079.939149,27040.738106,961.310071,26908.442336,884.262319C26468.519052,629.882441,25904.269622,399.962167,25422.904289,278.887128C25333.644493,256.873485,25167.876299,210.400238,25056.301553,174.933813C24826.776361,104.000962,24747.080114,83.210299,24622.753968,66.088576C24350.192803,28.176191,23961.275117,8.608508,22733.952911,-31.749838C22523.554819,-37.864739,22316.344577,-46.425601,22271.714678,-50.094541C22228.678705,-53.763482,21970.462864,-64.770303,21697.901699,-74.554145C20478.549118,-121.027392,19705.495521,-193.183223,18956.350798,-331.379983C18573.808812,-402.312834,18242.272424,-490.367407,17816.694464,-633.456089L17623.829546,-698.274038L28178.800515,-701.942979C33983.875155,-703.165959,38736.959334,-703.165959,38740.147184,-700.719999C38743.335034,-698.274038,38743.335034,662.902906,38741.741109,2324.932976L38736.959334,5345.694029L38497.870592,5297.997802Z" transform="translate(-14213.828125,-2474.171515)" fill="rgb(17,175,178)" stroke="none" stroke-width="1"/></g></g></g><g id="eum5gard57kp5_to" transform="translate(4843.646433,1431.491373)"><path id="eum5gard57kp5" d="M33151.697185,6524.001021C32744.666046,6422.499953,32338.821587,6269.678120,31847.536189,6033.602603C31610.200247,5919.556459,31550.866262,5887.623539,31282.676649,5730.239861C30962.273128,5542.063724,30825.804962,5448.545886,30161.264327,4966.130698C30006.995965,4853.225016,29735.246312,4676.453493,29567.924474,4579.514271C29191.747007,4362.826598,28918.810675,4239.656763,28541.446528,4119.908312C28278.003634,4035.514166,28009.814020,3973.929248,27627.703155,3908.922947C27102.004045,3819.966955,26961.975840,3788.034034,26654.625796,3691.094812C26416.103175,3615.824357,26165.713757,3507.480521,25969.911606,3393.434377C25854.803674,3326.147153,25447.772535,3056.998254,25206.876555,2889.350422C25111.942178,2823.203659,24960.047176,2718.281207,24868.672839,2654.415366C24777.298501,2590.549526,24621.843460,2479.924767,24523.349044,2408.075696C24195.825446,2170.859717,23775.740830,1956.452967,23417.363559,1843.547285C23350.909495,1823.018979,23227.494806,1779.681445,23144.427226,1746.608063C22973.545349,1680.461300,22914.211363,1661.073455,22821.650346,1645.106995C22618.728117,1609.752691,22329.178268,1591.505308,21415.434895,1553.870080C21258.793174,1548.167773,21104.524812,1540.184543,21071.297780,1536.763159C21039.257428,1533.341774,20847.015316,1523.077621,20644.093086,1513.953930C19736.283111,1470.616395,19160.743454,1403.329171,18603.003992,1274.457028C18318.200863,1208.310265,18071.371484,1126.197041,17754.528003,992.763053L17610.939758,932.318597L25469.132770,928.897213C29791.020258,927.756752,33329.699141,927.756752,33332.072500,930.037674C33334.445860,932.318597,33334.445860,2201.652176,33333.259180,3751.539268L33329.699141,6568.479017L33151.697185,6524.001021Z" transform="translate(-14213.828125,-2474.171515)" fill="rgb(0,134,143)" stroke="none" stroke-width="1"/></g><g id="eum5gard57kp6_to" transform="translate(8872.855469,1479.040460)"><path id="eum5gard57kp6" d="M26471.825017,3931.817811C26239.747769,3877.338146,26008.347130,3795.312584,25728.230568,3668.601454C25592.908558,3607.388347,25559.078055,3590.248677,25406.164183,3505.774591C25223.479469,3404.772965,25145.669312,3354.578218,24766.767683,3095.646778C24678.808376,3035.045803,24523.864673,2940.165488,24428.462656,2888.134347C24213.977269,2771.829445,24058.356957,2705.719290,23843.194960,2641.445528C23692.987528,2596.147830,23540.073656,2563.092752,23322.205219,2528.201282C23022.466965,2480.455059,22942.626979,2463.315389,22767.384975,2411.284248C22631.386354,2370.883598,22488.621633,2312.731147,22376.980974,2251.518041C22311.349799,2215.402308,22079.272551,2070.939377,21941.920710,1980.956111C21887.791905,1945.452509,21801.185819,1889.136451,21749.086845,1854.857111C21696.987870,1820.577772,21608.351953,1761.201059,21552.193319,1722.636802C21365.448944,1595.313540,21125.928985,1480.232900,20921.592749,1419.631925C20883.702586,1408.613566,20813.335141,1385.352586,20765.972437,1367.600785C20668.540589,1332.097183,20634.710087,1321.690955,20581.934503,1313.121120C20466.234183,1294.145057,20301.141330,1284.350960,19780.151589,1264.150635C19690.839062,1261.089980,19602.879755,1256.805062,19583.934674,1254.968669C19565.666202,1253.132276,19456.055374,1247.623096,19340.355055,1242.726048C18822.748364,1219.465067,18494.592488,1183.349334,18176.585763,1114.178524C18014.199350,1078.674923,17873.464459,1034.601486,17692.809575,962.982151L17610.939758,930.539205L22091.451532,928.702812C24555.665346,928.090681,26573.316525,928.090681,26574.669745,929.314943C26576.022965,930.539205,26576.022965,1611.841079,26575.346355,2443.727195L26573.316525,3955.690922L26471.825017,3931.817811Z" transform="translate(-14213.828125,-2474.171515)" fill="rgb(3,94,114)" stroke="none" stroke-width="1"/></g><g id="eum5gard57kp7_to" transform="translate(12341.660522,1545.692450)"><g id="eum5gard57kp7_tr" transform="rotate(0)"><path id="eum5gard57kp7" d="M26367.146472,3495.784894C26137.810881,3449.214746,25909.143907,3379.097894,25632.336517,3270.783055C25498.613140,3218.457046,25465.182296,3203.805764,25314.074880,3131.595871C25133.548321,3045.257956,25056.657380,3002.350629,24682.231925,2781.011610C24595.311730,2729.208862,24442.198463,2648.103547,24347.923482,2603.626440C24135.971930,2504.207023,23982.190047,2447.694933,23769.569878,2392.752623C23621.136929,2354.031377,23470.029514,2325.775332,23254.734877,2295.949507C22958.537597,2255.135220,22879.640805,2240.483937,22706.469032,2196.006829C22572.077038,2161.471663,22430.998876,2111.761955,22320.677090,2059.435946C22255.821252,2028.563600,22026.485661,1905.074219,21890.756433,1828.154986C21837.267083,1797.805900,21751.684121,1749.665972,21700.200621,1720.363407C21648.717121,1691.060842,21561.128310,1640.304613,21505.633108,1607.339227C21321.094848,1498.501129,21084.404471,1400.128232,20882.482172,1348.325483C20845.039627,1338.906801,20775.503471,1319.022918,20728.700289,1303.848375C20632.419457,1273.499290,20598.988613,1264.603868,20546.836496,1257.278227C20432.503009,1241.057164,20269.360489,1232.685003,19754.525489,1215.417420C19666.268060,1212.801119,19579.347865,1209.138299,19560.626592,1207.568518C19542.573936,1205.998738,19434.258001,1201.289397,19319.924514,1197.103316C18808.432598,1177.219433,18484.153409,1146.347088,18169.903473,1087.218697C18009.435421,1056.869612,17870.363109,1019.194886,17691.842401,957.973455L17610.939758,930.240670L22038.520765,928.670890C24473.623457,928.147630,26467.439005,928.147630,26468.776239,929.194150C26470.113473,930.240670,26470.113473,1512.629151,26469.444856,2223.739614L26467.439005,3516.192038L26367.146472,3495.784894Z" transform="translate(-14213.828125,-2474.171515)" fill="rgb(6,52,75)" stroke="none" stroke-width="1"/></g></g></g></svg>