<svg id="svg" version="1.1" xmlns="http://www.w3.org/2000/svg" xmlns:xlink="http://www.w3.org/1999/xlink" width="400" height="62.849872773536894" viewBox="0, 0, 400,62.849872773536894"><g id="svgg"><path id="path0" d="M259.628 0.094 C 259.577 0.146,259.302 0.195,259.017 0.203 C 258.733 0.211,258.500 0.285,258.500 0.369 C 258.500 0.452,258.431 0.477,258.348 0.425 C 258.264 0.374,258.170 0.388,258.139 0.457 C 258.108 0.527,257.783 0.733,257.417 0.917 C 256.539 1.356,255.575 2.270,255.867 2.387 C 256.014 2.446,255.996 2.478,255.811 2.487 C 255.486 2.503,254.942 3.272,255.089 3.509 C 255.145 3.600,255.092 3.654,254.971 3.629 C 254.849 3.604,254.749 3.704,254.747 3.852 C 254.746 4.000,254.639 4.249,254.510 4.405 C 254.380 4.561,254.246 5.040,254.211 5.469 C 254.038 7.581,254.041 8.431,254.223 8.657 C 254.376 8.847,254.369 8.869,254.192 8.762 C 254.004 8.649,254.003 8.692,254.184 9.022 C 254.304 9.239,254.382 9.548,254.357 9.708 C 254.332 9.869,254.392 10.000,254.490 10.000 C 254.587 10.000,254.667 10.085,254.667 10.190 C 254.667 10.294,254.798 10.480,254.958 10.601 C 255.128 10.730,255.165 10.825,255.047 10.828 C 254.935 10.831,255.228 11.208,255.699 11.667 C 256.169 12.125,256.490 12.500,256.412 12.500 C 256.206 12.500,256.821 13.035,257.516 13.461 C 257.846 13.664,258.163 13.782,258.221 13.724 C 258.278 13.666,258.374 13.744,258.432 13.897 C 258.509 14.098,258.597 14.127,258.747 14.002 C 258.896 13.879,259.016 13.902,259.163 14.079 C 259.278 14.218,259.642 14.330,259.977 14.330 C 260.311 14.330,260.883 14.358,261.250 14.392 C 262.180 14.478,263.860 14.226,264.014 13.977 C 264.084 13.863,264.354 13.742,264.613 13.708 C 264.872 13.674,265.108 13.576,265.139 13.490 C 265.169 13.404,265.266 13.333,265.354 13.333 C 265.699 13.333,267.500 11.525,267.500 11.179 C 267.500 11.045,267.690 10.736,267.923 10.494 C 268.234 10.169,268.355 9.849,268.381 9.277 C 268.407 8.717,268.486 8.501,268.667 8.499 C 268.871 8.496,268.875 8.468,268.691 8.352 C 268.566 8.273,268.529 8.168,268.609 8.119 C 268.825 7.986,268.888 5.833,268.676 5.833 C 268.579 5.833,268.500 5.727,268.500 5.597 C 268.500 5.467,268.406 5.323,268.292 5.277 C 268.125 5.210,268.125 5.190,268.292 5.180 C 268.592 5.161,268.549 4.675,268.236 4.555 C 268.037 4.478,268.023 4.422,268.180 4.325 C 268.339 4.227,268.323 4.132,268.110 3.920 C 267.958 3.768,267.833 3.570,267.833 3.481 C 267.833 3.392,267.740 3.207,267.625 3.070 C 266.888 2.188,266.351 1.667,266.179 1.667 C 266.070 1.667,266.024 1.595,266.078 1.508 C 266.201 1.310,265.553 0.948,265.326 1.088 C 265.234 1.145,265.169 1.130,265.182 1.054 C 265.241 0.717,265.148 0.605,265.000 0.833 C 264.862 1.046,264.838 1.039,264.836 0.788 C 264.833 0.468,264.085 0.099,263.721 0.238 C 263.600 0.285,263.500 0.250,263.500 0.161 C 263.500 -0.009,259.795 -0.073,259.628 0.094 M204.042 0.776 C 203.686 0.921,203.741 61.429,204.097 61.566 C 204.242 61.621,206.867 61.667,209.930 61.667 L 215.500 61.667 215.500 50.333 L 215.500 39.000 218.292 39.003 C 219.958 39.004,220.990 39.064,220.852 39.151 C 220.667 39.269,220.687 39.333,220.958 39.478 C 221.143 39.577,221.343 39.850,221.402 40.086 C 221.461 40.321,221.583 40.469,221.672 40.414 C 221.761 40.359,221.833 40.465,221.833 40.650 C 221.833 40.836,222.002 41.144,222.208 41.336 C 222.415 41.529,222.583 41.738,222.584 41.801 C 222.584 41.948,223.352 43.049,223.548 43.185 C 223.629 43.241,223.688 43.336,223.678 43.395 C 223.629 43.708,224.226 44.342,224.373 44.135 C 224.482 43.982,224.504 44.029,224.447 44.292 C 224.402 44.498,224.433 44.667,224.516 44.667 C 224.599 44.667,224.669 44.760,224.671 44.875 C 224.674 44.990,224.899 45.302,225.171 45.569 C 225.444 45.837,225.667 46.184,225.667 46.341 C 225.667 46.675,226.061 47.050,226.232 46.879 C 226.298 46.813,226.305 46.881,226.248 47.028 C 226.186 47.191,226.298 47.452,226.531 47.690 C 226.743 47.906,227.029 48.308,227.167 48.583 C 227.304 48.858,227.585 49.255,227.792 49.466 C 227.998 49.676,228.167 49.925,228.167 50.017 C 228.167 50.110,228.236 50.143,228.322 50.090 C 228.407 50.038,228.524 50.071,228.582 50.164 C 228.639 50.257,228.598 50.333,228.489 50.333 C 228.342 50.333,228.344 50.396,228.498 50.581 C 228.612 50.718,228.783 50.781,228.878 50.722 C 228.974 50.663,229.002 50.695,228.940 50.795 C 228.801 51.020,229.166 51.854,229.353 51.738 C 229.428 51.691,229.538 51.844,229.597 52.077 C 229.655 52.309,229.803 52.500,229.925 52.500 C 230.047 52.500,230.201 52.587,230.266 52.692 C 230.344 52.819,230.305 52.843,230.151 52.761 C 230.022 52.693,230.104 52.801,230.333 53.000 C 230.563 53.199,230.637 53.305,230.500 53.236 C 230.334 53.152,230.356 53.231,230.567 53.471 C 230.742 53.670,230.825 53.833,230.751 53.833 C 230.678 53.833,230.812 54.013,231.049 54.233 C 231.286 54.452,231.434 54.677,231.379 54.733 C 231.323 54.788,231.365 54.833,231.472 54.833 C 231.579 54.833,231.667 54.948,231.667 55.089 C 231.667 55.229,231.779 55.387,231.916 55.439 C 232.053 55.492,232.128 55.594,232.083 55.667 C 232.039 55.739,232.114 55.841,232.251 55.894 C 232.388 55.947,232.500 56.099,232.500 56.233 C 232.500 56.367,232.631 56.607,232.792 56.768 C 232.952 56.928,233.083 57.118,233.083 57.190 C 233.083 57.384,233.521 57.979,234.083 58.549 C 234.358 58.828,234.437 58.949,234.258 58.820 C 233.935 58.585,233.935 58.587,234.258 59.036 C 234.437 59.286,234.644 59.492,234.718 59.495 C 234.792 59.498,234.807 59.575,234.750 59.667 C 234.693 59.758,234.768 59.833,234.917 59.833 C 235.065 59.833,235.148 59.895,235.102 59.970 C 235.056 60.045,235.201 60.304,235.426 60.546 C 235.650 60.788,235.833 61.100,235.833 61.240 C 235.833 61.654,236.288 61.678,243.083 61.630 L 249.583 61.583 249.636 61.124 C 249.666 60.866,249.574 60.551,249.428 60.404 C 249.284 60.260,249.167 60.040,249.167 59.914 C 249.167 59.788,249.027 59.588,248.856 59.468 C 248.685 59.348,248.516 59.175,248.481 59.083 C 248.445 58.992,248.360 58.935,248.292 58.958 C 248.173 58.998,248.101 58.739,248.150 58.449 C 248.163 58.375,247.919 58.000,247.609 57.615 C 247.298 57.231,246.955 56.746,246.847 56.537 C 246.739 56.328,246.584 56.198,246.503 56.248 C 246.422 56.298,246.302 56.251,246.236 56.144 C 246.160 56.022,246.187 55.993,246.308 56.067 C 246.662 56.286,246.505 55.887,246.046 55.399 C 245.796 55.134,245.589 54.858,245.587 54.786 C 245.585 54.713,245.508 54.601,245.415 54.536 C 245.323 54.470,245.102 54.140,244.924 53.802 C 244.747 53.464,244.541 53.224,244.468 53.270 C 244.394 53.316,244.333 53.269,244.333 53.167 C 244.333 53.064,244.265 53.022,244.182 53.074 C 244.099 53.125,244.063 53.036,244.101 52.875 C 244.140 52.713,243.965 52.351,243.706 52.061 C 243.450 51.774,243.094 51.268,242.916 50.936 C 242.737 50.605,242.528 50.333,242.452 50.333 C 242.376 50.333,242.367 50.420,242.433 50.526 C 242.504 50.641,242.479 50.673,242.369 50.606 C 242.269 50.544,242.216 50.345,242.251 50.163 C 242.286 49.982,242.240 49.833,242.149 49.833 C 242.058 49.833,241.881 49.588,241.755 49.288 C 241.630 48.989,241.371 48.602,241.180 48.429 C 240.990 48.256,240.833 48.014,240.833 47.891 C 240.833 47.768,240.763 47.667,240.678 47.667 C 240.592 47.667,240.473 47.511,240.413 47.321 C 240.352 47.131,240.260 47.018,240.208 47.070 C 240.096 47.182,239.567 46.474,239.626 46.292 C 239.648 46.223,239.592 46.167,239.500 46.167 C 239.408 46.167,239.333 46.049,239.333 45.905 C 239.333 45.761,239.240 45.545,239.125 45.425 C 239.010 45.305,238.809 45.052,238.678 44.863 C 238.547 44.673,238.389 44.549,238.328 44.587 C 238.266 44.625,238.127 44.358,238.018 43.995 C 237.905 43.616,237.716 43.333,237.577 43.333 C 237.443 43.333,237.342 43.277,237.353 43.208 C 237.403 42.889,237.319 42.656,237.184 42.739 C 237.103 42.790,236.989 42.644,236.931 42.416 C 236.874 42.187,236.757 42.000,236.671 42.000 C 236.586 42.000,236.391 41.738,236.240 41.418 C 236.088 41.098,235.895 40.879,235.811 40.931 C 235.727 40.982,235.679 40.963,235.703 40.887 C 235.763 40.705,234.993 39.452,234.717 39.283 C 234.598 39.210,234.500 39.058,234.500 38.946 C 234.500 38.833,234.261 38.480,233.968 38.162 C 233.506 37.659,233.173 36.881,233.510 37.089 C 233.575 37.130,233.723 37.050,233.838 36.911 C 233.953 36.772,234.180 36.701,234.343 36.753 C 234.506 36.805,234.687 36.769,234.746 36.673 C 234.805 36.578,235.003 36.500,235.186 36.500 C 235.370 36.500,235.478 36.433,235.428 36.351 C 235.342 36.213,236.096 35.912,236.375 35.973 C 236.444 35.988,236.500 35.925,236.500 35.833 C 236.500 35.742,236.612 35.667,236.750 35.667 C 236.887 35.667,237.001 35.535,237.003 35.375 C 237.005 35.152,237.038 35.135,237.146 35.306 C 237.259 35.483,237.308 35.473,237.392 35.253 C 237.450 35.102,237.565 35.021,237.648 35.072 C 237.731 35.123,237.841 35.053,237.894 34.916 C 237.947 34.779,238.104 34.667,238.245 34.667 C 238.385 34.667,238.500 34.550,238.500 34.407 C 238.500 34.264,238.575 34.193,238.667 34.250 C 238.758 34.307,238.833 34.236,238.833 34.093 C 238.833 33.950,238.890 33.828,238.958 33.821 C 239.474 33.768,239.767 33.649,239.930 33.426 C 240.035 33.283,240.169 33.167,240.229 33.167 C 240.409 33.167,242.000 31.509,242.000 31.321 C 242.000 31.225,242.075 31.193,242.167 31.250 C 242.258 31.307,242.333 31.236,242.333 31.093 C 242.333 30.950,242.415 30.833,242.514 30.833 C 242.613 30.833,242.663 30.740,242.625 30.626 C 242.587 30.512,242.712 30.342,242.903 30.247 C 243.094 30.152,243.274 29.908,243.303 29.704 C 243.333 29.500,243.464 29.333,243.595 29.333 C 243.726 29.333,243.833 29.221,243.833 29.083 C 243.833 28.946,243.894 28.833,243.969 28.833 C 244.043 28.833,244.207 28.571,244.333 28.250 C 244.459 27.929,244.623 27.667,244.698 27.667 C 244.772 27.667,244.833 27.517,244.833 27.333 C 244.833 27.150,244.916 27.000,245.018 27.000 C 245.119 27.000,245.159 26.887,245.106 26.750 C 245.054 26.613,245.075 26.500,245.154 26.500 C 245.314 26.500,245.510 26.093,245.595 25.583 C 245.626 25.400,245.764 24.950,245.902 24.583 C 246.039 24.217,246.155 23.715,246.159 23.468 C 246.163 23.221,246.242 22.973,246.333 22.917 C 246.425 22.860,246.500 22.739,246.500 22.647 C 246.500 22.555,246.413 22.534,246.308 22.599 C 246.182 22.677,246.161 22.644,246.247 22.505 C 246.414 22.234,246.575 20.806,246.547 19.833 C 246.535 19.421,246.520 18.544,246.513 17.885 C 246.506 17.226,246.426 16.641,246.334 16.584 C 246.242 16.527,246.167 16.272,246.167 16.018 C 246.167 15.764,246.110 15.499,246.042 15.431 C 245.973 15.362,245.909 15.181,245.900 15.028 C 245.848 14.137,245.588 13.303,245.317 13.158 C 245.142 13.064,245.053 12.890,245.107 12.747 C 245.161 12.606,245.109 12.500,244.984 12.500 C 244.822 12.500,244.814 12.452,244.957 12.310 C 245.099 12.168,245.054 12.039,244.782 11.797 C 244.581 11.620,244.510 11.522,244.625 11.580 C 244.890 11.715,244.896 11.463,244.633 11.200 C 244.523 11.090,244.497 11.000,244.574 11.000 C 244.652 11.000,244.517 10.816,244.274 10.591 C 243.850 10.198,243.672 9.881,243.984 10.074 C 244.068 10.125,244.050 9.985,243.945 9.763 C 243.840 9.541,243.678 9.372,243.586 9.388 C 243.493 9.404,243.435 9.323,243.458 9.208 C 243.481 9.094,243.425 9.000,243.333 9.000 C 243.242 9.000,243.176 8.944,243.186 8.875 C 243.233 8.583,243.159 8.286,243.063 8.381 C 242.924 8.520,242.439 8.019,242.390 7.685 C 242.369 7.537,242.156 7.248,241.916 7.042 C 241.677 6.835,241.520 6.667,241.567 6.667 C 241.765 6.667,240.039 5.188,239.550 4.939 C 239.257 4.789,238.957 4.573,238.883 4.458 C 238.679 4.140,237.917 3.540,238.089 3.833 C 238.200 4.022,238.135 4.010,237.826 3.788 C 236.833 3.071,236.403 2.838,236.208 2.911 C 236.094 2.954,236.000 2.895,236.000 2.780 C 236.000 2.665,235.838 2.559,235.640 2.544 C 235.442 2.529,235.225 2.428,235.159 2.320 C 235.092 2.212,234.954 2.175,234.852 2.238 C 234.750 2.301,234.667 2.269,234.667 2.167 C 234.667 2.064,234.600 2.021,234.519 2.072 C 234.438 2.122,234.278 2.051,234.165 1.915 C 234.052 1.778,233.756 1.667,233.507 1.667 C 233.259 1.667,232.999 1.610,232.931 1.542 C 232.862 1.473,232.756 1.410,232.694 1.402 C 232.633 1.394,232.451 1.330,232.289 1.258 C 232.127 1.187,231.846 1.168,231.664 1.216 C 231.482 1.263,231.333 1.226,231.333 1.133 C 231.333 1.040,231.221 1.008,231.083 1.060 C 230.946 1.113,230.833 1.087,230.833 1.002 C 230.833 0.917,230.575 0.868,230.259 0.893 C 229.944 0.917,229.722 0.879,229.767 0.806 C 229.854 0.664,204.388 0.635,204.042 0.776 M227.667 11.476 C 228.079 11.509,228.454 11.591,228.500 11.659 C 228.546 11.727,228.715 11.794,228.875 11.808 C 229.564 11.868,229.667 11.896,229.667 12.028 C 229.667 12.104,229.756 12.167,229.864 12.167 C 229.973 12.167,230.235 12.330,230.448 12.529 C 230.660 12.728,230.833 12.803,230.833 12.696 C 230.833 12.588,230.746 12.500,230.639 12.500 C 230.532 12.500,230.493 12.452,230.551 12.393 C 230.610 12.334,230.969 12.596,231.347 12.975 C 231.726 13.354,232.108 13.619,232.196 13.565 C 232.284 13.511,232.397 13.624,232.447 13.817 C 232.498 14.009,232.661 14.168,232.811 14.169 C 233.009 14.171,233.027 14.208,232.875 14.304 C 232.724 14.400,232.820 14.602,233.227 15.047 C 233.535 15.383,233.747 15.697,233.699 15.746 C 233.651 15.794,233.703 15.833,233.815 15.833 C 233.928 15.833,233.971 15.912,233.912 16.007 C 233.853 16.103,233.895 16.290,234.006 16.424 C 234.117 16.557,234.158 16.667,234.098 16.667 C 234.038 16.667,234.080 16.835,234.191 17.042 C 234.478 17.573,234.525 18.017,234.503 20.000 C 234.479 22.187,234.464 22.331,234.273 22.213 C 234.185 22.158,234.155 22.310,234.204 22.564 C 234.251 22.810,234.250 22.972,234.202 22.924 C 234.154 22.876,233.937 23.194,233.721 23.632 C 233.504 24.069,233.122 24.648,232.872 24.918 C 232.622 25.189,232.437 25.473,232.462 25.551 C 232.488 25.628,232.449 25.655,232.377 25.611 C 232.305 25.566,232.102 25.635,231.925 25.765 C 231.748 25.894,231.697 26.000,231.811 26.000 C 231.926 26.000,231.973 26.076,231.915 26.169 C 231.857 26.263,231.749 26.301,231.674 26.255 C 231.599 26.208,231.445 26.282,231.332 26.419 C 231.219 26.555,231.033 26.667,230.919 26.667 C 230.805 26.667,230.524 26.814,230.295 26.995 C 230.066 27.175,229.830 27.275,229.772 27.217 C 229.714 27.159,229.667 27.203,229.667 27.315 C 229.667 27.428,229.583 27.468,229.481 27.405 C 229.379 27.342,229.248 27.368,229.190 27.462 C 229.045 27.695,227.940 27.886,226.869 27.863 C 226.340 27.852,226.027 27.909,226.087 28.006 C 226.150 28.108,224.237 28.167,220.843 28.167 L 215.500 28.167 215.500 19.833 L 215.500 11.500 220.875 11.474 C 223.831 11.459,226.344 11.451,226.458 11.455 C 226.573 11.459,226.668 11.378,226.669 11.273 C 226.671 11.152,226.716 11.144,226.794 11.250 C 226.862 11.342,227.254 11.443,227.667 11.476 M338.250 18.630 C 337.883 18.662,337.512 18.759,337.425 18.844 C 337.338 18.930,337.119 19.000,336.938 19.000 C 336.757 19.000,336.460 19.131,336.276 19.292 C 336.093 19.452,335.998 19.490,336.065 19.375 C 336.232 19.089,335.989 19.114,335.317 19.453 C 335.005 19.610,334.675 19.745,334.583 19.753 C 334.112 19.794,333.513 20.054,333.593 20.183 C 333.643 20.263,333.580 20.289,333.452 20.241 C 333.324 20.192,333.125 20.267,333.008 20.407 C 332.891 20.548,332.729 20.622,332.647 20.571 C 332.565 20.520,332.453 20.596,332.398 20.738 C 332.343 20.881,332.231 20.957,332.149 20.906 C 332.067 20.855,332.000 20.901,332.000 21.008 C 332.000 21.115,331.891 21.161,331.759 21.110 C 331.614 21.054,331.477 21.144,331.417 21.333 C 331.356 21.523,331.220 21.613,331.074 21.557 C 330.940 21.505,330.680 21.638,330.487 21.857 C 330.297 22.073,330.190 22.137,330.250 22.000 C 330.320 21.837,330.275 21.851,330.119 22.042 C 329.987 22.202,329.806 22.333,329.715 22.333 C 329.477 22.333,328.743 23.010,328.792 23.185 C 328.815 23.266,328.699 23.333,328.536 23.333 C 328.372 23.333,327.791 23.791,327.244 24.350 C 326.697 24.909,326.123 25.485,325.967 25.629 C 325.811 25.774,325.718 25.948,325.759 26.015 C 325.800 26.081,325.603 26.331,325.321 26.568 C 325.039 26.806,324.870 27.002,324.946 27.005 C 325.021 27.008,324.951 27.087,324.788 27.182 C 324.626 27.276,324.531 27.415,324.577 27.489 C 324.623 27.564,324.470 27.831,324.237 28.082 C 324.003 28.334,323.854 28.647,323.904 28.778 C 323.955 28.910,323.926 28.974,323.840 28.921 C 323.754 28.867,323.602 28.976,323.502 29.162 C 323.403 29.348,323.364 29.500,323.415 29.500 C 323.467 29.500,323.246 29.890,322.925 30.367 C 322.498 31.001,322.396 31.270,322.545 31.365 C 322.706 31.467,322.705 31.495,322.542 31.497 C 322.427 31.499,322.342 31.556,322.353 31.625 C 322.410 31.985,322.312 32.174,322.125 32.066 C 322.010 32.001,321.967 32.002,322.027 32.070 C 322.088 32.138,322.031 32.450,321.900 32.764 C 321.769 33.077,321.719 33.334,321.789 33.336 C 321.859 33.337,321.818 33.401,321.696 33.478 C 321.575 33.555,321.455 33.890,321.428 34.222 C 321.402 34.554,321.293 34.931,321.187 35.058 C 321.081 35.186,321.044 35.421,321.105 35.579 C 321.167 35.740,321.125 35.923,321.010 35.994 C 320.894 36.066,320.801 36.477,320.796 36.936 C 320.792 37.384,320.732 37.825,320.662 37.917 C 320.477 38.160,320.527 42.836,320.713 42.721 C 320.800 42.668,320.797 42.761,320.705 42.938 C 320.616 43.110,320.569 43.400,320.600 43.583 C 320.632 43.767,320.685 44.160,320.717 44.458 C 320.750 44.756,320.827 45.049,320.888 45.111 C 320.950 45.172,321.000 45.547,321.000 45.944 C 321.000 46.342,321.075 46.667,321.167 46.667 C 321.258 46.667,321.333 46.854,321.333 47.083 C 321.333 47.313,321.402 47.500,321.485 47.500 C 321.569 47.500,321.617 47.689,321.591 47.921 C 321.566 48.152,321.610 48.382,321.689 48.431 C 321.768 48.480,321.833 48.649,321.833 48.806 C 321.833 48.964,321.963 49.278,322.122 49.504 C 322.417 49.926,322.431 49.970,322.475 50.635 C 322.489 50.846,322.575 50.973,322.667 50.917 C 322.758 50.860,322.833 50.968,322.833 51.157 C 322.833 51.368,322.946 51.505,323.125 51.513 C 323.301 51.521,323.334 51.560,323.207 51.611 C 322.999 51.695,323.491 52.580,323.909 52.872 C 324.018 52.949,324.021 52.998,323.917 53.003 C 323.825 53.007,323.881 53.087,324.042 53.180 C 324.202 53.273,324.333 53.496,324.333 53.674 C 324.333 53.852,324.483 54.091,324.667 54.205 C 324.850 54.320,325.000 54.512,325.000 54.633 C 325.000 54.754,325.075 54.807,325.167 54.750 C 325.258 54.693,325.333 54.726,325.333 54.823 C 325.333 54.921,325.333 55.038,325.333 55.083 C 325.333 55.254,325.921 55.778,326.042 55.714 C 326.110 55.677,326.167 55.750,326.167 55.875 C 326.167 56.158,327.157 57.192,327.327 57.087 C 327.395 57.045,327.542 57.210,327.654 57.455 C 327.774 57.719,327.902 57.826,327.970 57.718 C 328.048 57.593,328.150 57.609,328.298 57.768 C 328.474 57.957,328.474 58.002,328.298 58.014 C 328.180 58.021,328.327 58.134,328.625 58.264 C 328.923 58.394,329.167 58.576,329.167 58.667 C 329.167 58.759,329.284 58.833,329.427 58.833 C 329.569 58.833,329.643 58.903,329.591 58.988 C 329.538 59.073,329.646 59.191,329.831 59.249 C 330.016 59.308,330.167 59.426,330.167 59.511 C 330.167 59.597,330.286 59.667,330.433 59.667 C 330.579 59.667,330.916 59.821,331.181 60.011 C 331.447 60.200,331.740 60.308,331.832 60.251 C 331.924 60.194,332.000 60.264,332.000 60.407 C 332.000 60.550,332.141 60.667,332.313 60.667 C 332.485 60.667,332.715 60.774,332.824 60.906 C 332.934 61.038,333.257 61.197,333.542 61.259 C 333.827 61.322,334.304 61.510,334.601 61.677 C 334.898 61.844,335.428 62.032,335.779 62.095 C 336.130 62.159,336.492 62.255,336.583 62.309 C 336.778 62.424,336.940 62.456,338.167 62.624 C 339.455 62.801,347.346 62.782,347.750 62.601 C 347.933 62.519,348.290 62.452,348.542 62.453 C 348.794 62.454,349.000 62.407,349.000 62.347 C 349.000 62.288,349.206 62.222,349.458 62.202 C 349.710 62.181,349.939 62.097,349.966 62.016 C 349.994 61.935,350.163 61.907,350.342 61.954 C 350.522 62.001,350.774 61.952,350.903 61.845 C 351.032 61.737,351.351 61.612,351.611 61.565 C 351.871 61.519,352.108 61.410,352.139 61.324 C 352.169 61.237,352.324 61.167,352.482 61.167 C 352.641 61.167,352.927 61.021,353.117 60.843 C 353.308 60.666,353.514 60.570,353.575 60.630 C 353.635 60.691,353.737 60.666,353.801 60.575 C 353.864 60.484,354.104 60.318,354.333 60.206 C 355.010 59.875,355.397 59.602,355.634 59.289 C 355.756 59.127,355.920 59.034,355.998 59.082 C 356.076 59.130,356.485 58.839,356.907 58.435 C 357.329 58.030,357.786 57.656,357.923 57.604 C 358.060 57.551,358.244 57.319,358.332 57.088 C 358.420 56.856,358.611 56.667,358.756 56.667 C 358.901 56.667,358.978 56.600,358.927 56.517 C 358.877 56.435,358.947 56.325,359.084 56.273 C 359.221 56.220,359.333 56.070,359.333 55.940 C 359.333 55.810,359.512 55.658,359.730 55.603 C 360.096 55.511,360.413 54.979,360.337 54.583 C 360.320 54.492,360.360 54.472,360.428 54.539 C 360.583 54.694,361.667 53.556,361.667 53.238 C 361.667 53.107,361.742 53.000,361.833 53.000 C 361.925 53.000,362.000 52.893,362.000 52.762 C 362.000 52.631,362.118 52.406,362.262 52.262 C 362.406 52.118,362.443 52.000,362.345 52.000 C 362.247 52.000,362.167 51.917,362.167 51.816 C 362.167 51.714,362.271 51.671,362.398 51.720 C 362.559 51.782,362.623 51.688,362.607 51.412 C 362.591 51.146,362.455 50.983,362.194 50.918 C 361.981 50.864,361.513 50.636,361.156 50.410 C 360.799 50.185,360.417 50.000,360.308 50.000 C 360.199 50.000,359.981 49.883,359.823 49.741 C 359.666 49.599,359.379 49.470,359.185 49.456 C 358.992 49.441,358.833 49.370,358.833 49.298 C 358.833 49.226,358.777 49.183,358.708 49.204 C 358.640 49.224,358.380 49.105,358.132 48.939 C 357.884 48.774,357.603 48.686,357.507 48.745 C 357.412 48.805,357.333 48.775,357.333 48.681 C 357.333 48.522,355.967 47.796,355.583 47.751 C 355.259 47.712,354.747 47.434,354.529 47.177 C 354.347 46.961,354.327 46.960,354.417 47.167 C 354.477 47.304,354.379 47.252,354.201 47.050 C 353.827 46.627,352.917 46.594,352.917 47.004 C 352.917 47.139,352.804 47.295,352.667 47.350 C 352.529 47.405,352.414 47.518,352.411 47.600 C 352.398 47.937,351.934 48.557,351.073 49.391 C 350.572 49.876,350.197 50.309,350.241 50.352 C 350.284 50.395,350.171 50.441,349.991 50.455 C 349.811 50.468,349.546 50.597,349.403 50.740 C 349.260 50.883,349.054 51.001,348.946 51.003 C 348.821 51.004,348.833 51.058,348.981 51.151 C 349.148 51.257,349.058 51.330,348.647 51.419 C 348.337 51.487,348.036 51.616,347.978 51.707 C 347.920 51.798,347.628 51.901,347.329 51.936 C 347.030 51.971,346.694 52.075,346.583 52.167 C 346.388 52.329,345.055 52.559,344.458 52.533 C 344.298 52.526,344.167 52.591,344.167 52.677 C 344.167 52.763,344.012 52.833,343.823 52.833 C 343.635 52.833,343.527 52.758,343.583 52.667 C 343.641 52.573,343.506 52.500,343.274 52.500 C 343.047 52.500,342.827 52.594,342.786 52.708 C 342.726 52.873,342.632 52.870,342.338 52.696 C 342.029 52.513,341.988 52.513,342.098 52.696 C 342.204 52.873,342.176 52.872,341.953 52.691 C 341.782 52.553,341.390 52.488,340.937 52.525 C 340.529 52.557,340.240 52.517,340.291 52.434 C 340.342 52.350,340.189 52.333,339.942 52.396 C 339.668 52.464,339.500 52.438,339.500 52.327 C 339.500 52.228,339.425 52.193,339.333 52.250 C 339.242 52.307,339.167 52.269,339.167 52.165 C 339.167 52.053,339.032 52.020,338.833 52.083 C 338.629 52.148,338.500 52.113,338.500 51.993 C 338.500 51.886,338.387 51.841,338.250 51.894 C 338.112 51.946,338.000 51.925,338.000 51.847 C 338.000 51.769,337.756 51.582,337.458 51.431 C 336.564 50.979,336.124 50.672,335.258 49.895 C 335.013 49.674,334.743 49.536,334.658 49.589 C 334.573 49.641,334.545 49.575,334.596 49.443 C 334.647 49.310,334.553 49.100,334.386 48.976 C 334.220 48.852,334.060 48.641,334.030 48.508 C 334.001 48.375,333.831 48.163,333.653 48.038 C 333.474 47.913,333.366 47.749,333.413 47.673 C 333.460 47.597,333.386 47.492,333.249 47.439 C 333.112 47.387,333.000 47.150,333.000 46.912 C 333.000 46.675,332.933 46.522,332.851 46.572 C 332.684 46.675,332.532 46.213,332.236 44.710 C 332.177 44.413,332.070 44.207,331.997 44.252 C 331.924 44.297,331.904 44.184,331.952 44.000 C 332.038 43.670,332.176 43.667,347.339 43.667 C 363.709 43.667,363.167 43.689,363.167 43.016 C 363.167 42.769,363.257 42.477,363.367 42.367 C 363.486 42.247,363.498 42.167,363.394 42.167 C 363.300 42.167,363.222 42.057,363.222 41.924 C 363.222 41.791,363.266 41.708,363.319 41.741 C 363.373 41.774,363.429 40.946,363.443 39.901 C 363.458 38.851,363.402 38.000,363.318 38.000 C 363.235 38.000,363.167 37.621,363.167 37.157 C 363.167 36.531,363.113 36.344,362.958 36.431 C 362.792 36.525,362.792 36.504,362.958 36.324 C 363.188 36.077,363.243 35.766,363.035 35.895 C 362.962 35.940,362.917 35.644,362.934 35.237 C 362.951 34.831,362.898 34.456,362.816 34.406 C 362.734 34.355,362.667 34.135,362.667 33.917 C 362.667 33.698,362.599 33.478,362.516 33.426 C 362.433 33.375,362.402 33.192,362.447 33.019 C 362.492 32.846,362.448 32.654,362.348 32.592 C 362.248 32.531,362.167 32.260,362.167 31.990 C 362.167 31.721,362.084 31.500,361.982 31.500 C 361.881 31.500,361.841 31.387,361.894 31.250 C 361.946 31.113,361.926 31.000,361.849 31.000 C 361.717 31.000,361.429 30.064,361.478 29.792 C 361.490 29.723,361.425 29.667,361.333 29.667 C 361.242 29.667,361.167 29.554,361.167 29.417 C 361.167 29.279,361.092 29.167,361.000 29.167 C 360.908 29.167,360.833 29.050,360.833 28.907 C 360.833 28.764,360.765 28.689,360.682 28.740 C 360.599 28.792,360.570 28.684,360.618 28.500 C 360.682 28.257,360.621 28.163,360.394 28.154 C 360.223 28.146,360.172 28.104,360.280 28.060 C 360.462 27.986,359.939 26.833,359.724 26.833 C 359.682 26.833,359.693 26.908,359.750 27.000 C 359.918 27.271,359.726 27.190,359.479 26.885 C 359.323 26.693,359.317 26.643,359.458 26.728 C 359.573 26.797,359.664 26.792,359.661 26.718 C 359.652 26.490,359.041 25.833,358.838 25.833 C 358.733 25.833,358.687 25.769,358.735 25.691 C 358.848 25.509,356.859 23.333,356.580 23.333 C 356.464 23.333,356.326 23.221,356.273 23.083 C 356.220 22.946,356.062 22.833,355.922 22.833 C 355.782 22.833,355.667 22.748,355.667 22.645 C 355.667 22.378,354.988 21.821,354.803 21.935 C 354.718 21.988,354.522 21.884,354.366 21.706 C 354.211 21.527,353.915 21.328,353.708 21.263 C 353.502 21.197,353.333 21.086,353.333 21.015 C 353.333 20.827,351.213 19.792,350.750 19.755 C 350.658 19.747,350.490 19.682,350.375 19.611 C 350.260 19.539,350.167 19.525,350.167 19.579 C 350.167 19.634,349.998 19.583,349.792 19.467 C 349.403 19.249,349.331 19.229,348.292 19.063 C 347.948 19.008,347.667 18.888,347.667 18.795 C 347.667 18.693,347.573 18.704,347.432 18.821 C 347.255 18.968,347.167 18.968,347.078 18.825 C 347.008 18.711,346.761 18.673,346.472 18.731 C 346.203 18.784,346.023 18.765,346.070 18.688 C 346.153 18.553,339.649 18.505,338.250 18.630 M391.092 18.653 C 391.040 18.736,390.780 18.770,390.514 18.728 C 390.247 18.686,389.981 18.730,389.921 18.826 C 389.862 18.922,389.635 19.000,389.417 19.000 C 389.198 19.000,388.973 19.076,388.915 19.169 C 388.857 19.263,388.740 19.296,388.655 19.243 C 388.570 19.190,388.500 19.226,388.500 19.323 C 388.500 19.421,388.329 19.500,388.120 19.500 C 387.912 19.500,387.614 19.648,387.458 19.830 C 387.303 20.011,387.077 20.122,386.955 20.075 C 386.834 20.029,386.570 20.180,386.369 20.412 C 386.167 20.644,385.856 20.833,385.678 20.833 C 385.499 20.833,385.299 20.920,385.234 21.026 C 385.155 21.153,385.189 21.173,385.333 21.083 C 385.479 20.993,385.511 21.014,385.431 21.144 C 385.365 21.251,385.253 21.303,385.182 21.260 C 384.990 21.141,384.333 21.652,384.333 21.921 C 384.333 22.062,384.233 22.118,384.083 22.060 C 383.935 22.003,383.833 22.058,383.833 22.195 C 383.833 22.322,383.674 22.537,383.480 22.672 C 382.865 23.098,382.660 23.354,382.775 23.555 C 382.837 23.662,382.825 23.694,382.750 23.626 C 382.638 23.524,381.969 24.362,381.919 24.667 C 381.857 25.036,381.454 25.472,381.247 25.393 C 381.042 25.314,381.000 24.823,381.000 22.524 L 381.000 19.750 375.625 19.786 L 370.250 19.822 370.208 40.655 C 370.166 61.211,370.170 61.490,370.493 61.663 C 370.707 61.778,372.686 61.823,376.240 61.794 L 381.659 61.750 381.679 50.458 C 381.690 44.247,381.755 39.132,381.823 39.090 C 381.891 39.048,381.961 38.620,381.978 38.139 C 381.995 37.658,382.063 37.224,382.129 37.174 C 382.196 37.124,382.276 36.896,382.307 36.667 C 382.339 36.438,382.479 36.121,382.620 35.964 C 382.760 35.806,382.838 35.535,382.792 35.360 C 382.742 35.170,382.831 34.955,383.015 34.822 C 383.183 34.701,383.367 34.392,383.424 34.135 C 383.480 33.879,383.616 33.612,383.725 33.543 C 383.834 33.473,384.016 33.206,384.129 32.949 C 384.242 32.692,384.409 32.527,384.499 32.583 C 384.593 32.641,384.620 32.572,384.561 32.419 C 384.495 32.246,384.540 32.170,384.688 32.202 C 384.814 32.228,384.896 32.151,384.871 32.029 C 384.846 31.908,384.890 31.849,384.969 31.897 C 385.048 31.946,385.402 31.689,385.757 31.326 C 386.111 30.964,386.498 30.667,386.617 30.667 C 386.736 30.667,386.834 30.610,386.835 30.542 C 386.838 30.356,387.993 29.860,388.707 29.737 C 389.050 29.678,389.289 29.563,389.239 29.482 C 389.160 29.355,389.961 29.242,390.393 29.319 C 390.471 29.334,390.640 29.258,390.768 29.152 C 390.933 29.015,391.000 29.012,391.000 29.144 C 391.000 29.268,391.525 29.322,392.600 29.306 C 393.710 29.291,394.239 29.347,394.327 29.490 C 394.397 29.603,394.596 29.677,394.769 29.655 C 395.092 29.614,395.525 29.737,396.048 30.018 C 396.213 30.106,396.412 30.137,396.493 30.088 C 396.573 30.038,396.667 30.085,396.703 30.192 C 396.752 30.338,396.849 30.339,397.092 30.198 C 397.328 30.062,397.348 30.008,397.167 30.003 C 396.975 29.997,396.966 29.964,397.129 29.860 C 397.246 29.786,397.373 29.482,397.410 29.184 C 397.448 28.887,397.567 28.536,397.676 28.406 C 397.784 28.275,397.835 28.023,397.788 27.845 C 397.742 27.667,397.793 27.487,397.903 27.445 C 398.125 27.360,398.522 26.001,398.532 25.292 C 398.536 25.040,398.593 24.833,398.659 24.833 C 398.848 24.833,399.222 23.558,399.094 23.351 C 399.032 23.250,399.060 23.167,399.157 23.167 C 399.254 23.167,399.333 23.017,399.333 22.833 C 399.333 22.650,399.418 22.500,399.521 22.500 C 399.641 22.500,399.672 22.317,399.607 21.992 C 399.542 21.666,399.566 21.521,399.675 21.588 C 399.780 21.653,399.815 21.530,399.767 21.263 C 399.724 21.027,399.759 20.833,399.844 20.833 C 400.274 20.833,399.909 19.673,399.458 19.607 C 399.316 19.586,399.080 19.469,398.933 19.347 C 398.757 19.200,398.667 19.189,398.667 19.313 C 398.667 19.416,398.592 19.500,398.500 19.500 C 398.408 19.500,398.333 19.382,398.333 19.237 C 398.333 19.044,398.199 18.989,397.827 19.028 C 397.548 19.057,397.267 19.007,397.202 18.916 C 396.953 18.567,391.295 18.324,391.092 18.653 M255.708 40.750 L 255.750 61.750 261.386 61.794 C 265.162 61.823,266.988 61.782,266.918 61.669 C 266.861 61.576,266.931 61.500,267.074 61.500 C 267.309 61.500,267.330 59.465,267.292 40.665 L 267.250 19.831 261.458 19.790 L 255.665 19.750 255.708 40.750 M272.403 19.819 C 272.260 19.962,272.340 20.182,272.498 20.085 C 272.593 20.026,272.621 20.093,272.564 20.241 C 272.509 20.384,272.539 20.500,272.631 20.500 C 272.723 20.500,272.842 20.616,272.897 20.759 C 272.964 20.933,272.929 20.978,272.790 20.897 C 272.676 20.830,272.713 20.924,272.871 21.105 C 273.029 21.286,273.186 21.580,273.219 21.759 C 273.251 21.937,273.376 22.308,273.496 22.583 C 273.616 22.858,273.821 23.332,273.953 23.635 C 274.084 23.939,274.288 24.224,274.405 24.268 C 274.525 24.315,274.585 24.516,274.544 24.732 C 274.502 24.951,274.589 25.232,274.748 25.390 C 274.899 25.542,274.972 25.667,274.908 25.667 C 274.845 25.667,274.886 25.779,275.000 25.917 C 275.114 26.054,275.159 26.167,275.099 26.167 C 275.040 26.167,275.121 26.410,275.280 26.708 C 275.589 27.287,275.614 27.357,275.646 27.760 C 275.657 27.903,275.726 27.983,275.798 27.939 C 275.870 27.894,275.946 28.058,275.966 28.304 C 275.986 28.549,276.073 28.774,276.159 28.802 C 276.244 28.831,276.273 28.963,276.223 29.094 C 276.172 29.226,276.208 29.333,276.302 29.333 C 276.396 29.333,276.523 29.557,276.583 29.831 C 276.643 30.105,276.762 30.372,276.846 30.425 C 276.931 30.477,277.000 30.656,277.000 30.823 C 277.000 30.989,277.112 31.219,277.250 31.333 C 277.387 31.447,277.500 31.724,277.500 31.947 C 277.500 32.215,277.566 32.312,277.695 32.232 C 277.821 32.155,277.857 32.198,277.797 32.355 C 277.746 32.488,277.806 32.736,277.930 32.907 C 278.054 33.077,278.109 33.291,278.052 33.384 C 277.993 33.479,278.032 33.500,278.141 33.433 C 278.247 33.367,278.339 33.374,278.345 33.448 C 278.406 34.169,278.513 34.572,278.669 34.668 C 278.771 34.731,278.894 35.038,278.942 35.350 C 278.991 35.662,279.098 35.942,279.182 35.972 C 279.265 36.003,279.333 36.138,279.333 36.274 C 279.333 36.409,279.408 36.473,279.500 36.417 C 279.591 36.360,279.652 36.450,279.636 36.615 C 279.596 37.007,279.989 38.000,280.183 38.000 C 280.266 38.000,280.333 38.227,280.333 38.505 C 280.333 38.874,280.435 39.052,280.708 39.161 C 281.053 39.300,281.056 39.313,280.750 39.325 C 280.538 39.334,280.488 39.384,280.612 39.463 C 280.719 39.531,280.858 39.792,280.921 40.042 C 280.984 40.293,281.102 40.457,281.183 40.407 C 281.263 40.357,281.285 40.432,281.230 40.575 C 281.174 40.721,281.219 40.833,281.333 40.833 C 281.445 40.833,281.496 40.937,281.447 41.064 C 281.398 41.191,281.455 41.435,281.572 41.606 C 281.690 41.777,281.877 42.198,281.989 42.542 C 282.101 42.885,282.268 43.167,282.360 43.167 C 282.452 43.167,282.496 43.260,282.457 43.375 C 282.418 43.490,282.535 43.715,282.718 43.875 C 282.901 44.035,282.960 44.167,282.849 44.167 C 282.643 44.167,283.116 45.191,283.376 45.306 C 283.445 45.337,283.461 45.428,283.411 45.510 C 283.361 45.591,283.444 45.847,283.596 46.079 C 283.747 46.310,283.807 46.502,283.728 46.505 C 283.648 46.508,283.729 46.621,283.907 46.755 C 284.104 46.904,284.145 47.000,284.011 47.000 C 283.832 47.000,283.831 47.047,284.008 47.260 C 284.127 47.403,284.245 47.720,284.271 47.966 C 284.298 48.211,284.397 48.438,284.493 48.470 C 284.588 48.502,284.667 48.641,284.667 48.780 C 284.667 48.918,284.777 49.231,284.911 49.474 C 285.263 50.109,285.723 51.228,285.692 51.375 C 285.678 51.444,285.750 51.500,285.851 51.500 C 285.953 51.500,285.992 51.612,285.940 51.750 C 285.887 51.887,285.916 52.000,286.005 52.000 C 286.094 52.000,286.166 52.094,286.166 52.208 C 286.165 52.644,287.053 54.487,287.216 54.386 C 287.312 54.327,287.334 54.364,287.267 54.472 C 287.142 54.675,287.592 55.767,287.952 56.137 C 288.070 56.258,288.167 56.577,288.167 56.845 C 288.167 57.154,288.253 57.333,288.401 57.333 C 288.554 57.333,288.605 57.450,288.548 57.670 C 288.494 57.873,288.633 58.267,288.896 58.666 C 289.137 59.029,289.333 59.445,289.333 59.590 C 289.333 59.734,289.404 59.809,289.491 59.755 C 289.578 59.702,289.622 59.801,289.588 59.975 C 289.554 60.150,289.633 60.498,289.763 60.749 C 289.894 61.000,290.000 61.301,290.000 61.418 C 290.000 61.789,290.368 61.815,295.799 61.829 C 301.480 61.843,301.737 61.819,301.570 61.293 C 301.500 61.071,301.526 60.997,301.649 61.072 C 301.762 61.142,301.833 61.049,301.833 60.833 C 301.833 60.639,301.907 60.526,301.998 60.582 C 302.093 60.641,302.121 60.574,302.064 60.425 C 302.009 60.283,302.047 60.167,302.149 60.167 C 302.250 60.167,302.333 59.979,302.333 59.750 C 302.333 59.521,302.390 59.332,302.458 59.331 C 302.527 59.330,302.723 59.012,302.894 58.623 C 303.065 58.235,303.313 57.710,303.445 57.458 C 303.577 57.206,303.638 57.000,303.579 57.000 C 303.521 57.000,303.629 56.747,303.820 56.439 C 304.011 56.130,304.167 55.755,304.167 55.605 C 304.167 55.456,304.232 55.333,304.313 55.333 C 304.393 55.333,304.505 55.101,304.561 54.818 C 304.618 54.534,304.890 53.830,305.166 53.252 C 305.441 52.675,305.667 52.082,305.667 51.935 C 305.667 51.787,305.742 51.667,305.833 51.667 C 305.925 51.667,306.000 51.597,306.000 51.511 C 306.000 51.425,306.066 51.181,306.147 50.969 C 306.227 50.757,306.301 50.526,306.310 50.457 C 306.319 50.387,306.438 50.115,306.573 49.853 C 306.709 49.590,306.773 49.329,306.716 49.271 C 306.658 49.214,306.690 49.167,306.787 49.167 C 306.939 49.167,307.246 48.371,307.166 48.185 C 307.151 48.150,307.201 48.075,307.277 48.019 C 307.596 47.785,307.934 47.259,307.667 47.413 C 307.474 47.525,307.480 47.484,307.693 47.237 C 307.846 47.061,308.095 46.485,308.247 45.958 C 308.399 45.431,308.631 44.893,308.761 44.762 C 308.892 44.632,308.954 44.407,308.898 44.262 C 308.832 44.091,308.890 44.000,309.066 44.000 C 309.382 44.000,309.423 43.731,309.125 43.610 C 309.001 43.560,309.034 43.521,309.208 43.513 C 309.380 43.505,309.500 43.369,309.500 43.181 C 309.500 43.005,309.578 42.835,309.674 42.803 C 309.769 42.771,309.870 42.533,309.898 42.273 C 309.926 42.014,310.026 41.753,310.120 41.692 C 310.214 41.632,310.344 41.340,310.409 41.042 C 310.474 40.744,310.604 40.500,310.698 40.500 C 310.792 40.500,310.826 40.387,310.773 40.250 C 310.720 40.112,310.750 40.000,310.839 40.000 C 310.927 40.000,311.000 39.822,311.000 39.604 C 311.000 39.386,311.116 39.111,311.258 38.993 C 311.464 38.823,311.472 38.752,311.300 38.642 C 311.133 38.537,311.131 38.505,311.292 38.503 C 311.406 38.501,311.500 38.383,311.500 38.240 C 311.500 38.079,311.579 38.026,311.708 38.100 C 311.823 38.166,311.864 38.161,311.799 38.089 C 311.734 38.017,311.865 37.612,312.090 37.189 C 312.316 36.766,312.500 36.250,312.500 36.043 C 312.500 35.836,312.583 35.667,312.684 35.667 C 312.786 35.667,312.828 35.560,312.778 35.430 C 312.729 35.301,312.804 35.150,312.946 35.095 C 313.107 35.033,313.172 34.871,313.118 34.664 C 313.063 34.454,313.097 34.373,313.211 34.444 C 313.322 34.513,313.352 34.455,313.289 34.291 C 313.230 34.137,313.291 33.988,313.438 33.932 C 313.575 33.879,313.644 33.765,313.591 33.679 C 313.538 33.593,313.571 33.476,313.664 33.418 C 313.757 33.361,313.833 33.155,313.833 32.962 C 313.833 32.768,313.942 32.490,314.074 32.343 C 314.207 32.197,314.361 31.816,314.416 31.497 C 314.472 31.178,314.589 30.892,314.675 30.861 C 314.762 30.831,314.833 30.699,314.833 30.569 C 314.833 30.440,314.900 30.333,314.981 30.333 C 315.205 30.333,315.332 29.668,315.109 29.661 C 315.003 29.658,315.086 29.561,315.293 29.446 C 315.600 29.275,315.631 29.195,315.460 29.010 C 315.289 28.827,315.294 28.810,315.487 28.920 C 315.662 29.020,315.696 28.983,315.617 28.777 C 315.558 28.625,315.583 28.500,315.672 28.500 C 315.761 28.500,315.833 28.346,315.833 28.157 C 315.833 27.968,315.907 27.859,315.998 27.915 C 316.093 27.974,316.121 27.907,316.064 27.759 C 316.009 27.616,316.047 27.500,316.149 27.500 C 316.250 27.500,316.333 27.322,316.333 27.104 C 316.333 26.886,316.451 26.610,316.595 26.490 C 316.739 26.371,316.821 26.139,316.779 25.976 C 316.736 25.812,316.777 25.694,316.870 25.714 C 317.026 25.747,317.069 25.647,317.220 24.903 C 317.249 24.759,317.381 24.572,317.512 24.489 C 317.643 24.406,317.682 24.337,317.599 24.336 C 317.516 24.334,317.563 24.202,317.703 24.042 C 317.843 23.881,318.052 23.450,318.167 23.083 C 318.283 22.717,318.450 22.324,318.540 22.210 C 318.630 22.097,318.661 21.892,318.608 21.754 C 318.552 21.609,318.597 21.521,318.714 21.544 C 318.826 21.565,318.895 21.452,318.868 21.292 C 318.841 21.131,318.897 21.000,318.993 21.000 C 319.088 21.000,319.167 20.850,319.167 20.667 C 319.167 20.483,319.242 20.333,319.333 20.333 C 319.425 20.333,319.500 20.202,319.500 20.042 C 319.500 19.768,319.092 19.752,312.967 19.787 L 306.433 19.825 306.222 20.204 C 306.107 20.413,306.009 20.823,306.006 21.117 C 306.002 21.435,305.889 21.712,305.724 21.804 C 305.566 21.893,305.491 22.068,305.547 22.216 C 305.604 22.364,305.538 22.514,305.389 22.571 C 305.237 22.629,305.173 22.777,305.233 22.933 C 305.289 23.078,305.186 23.405,305.005 23.659 C 304.825 23.913,304.724 24.169,304.783 24.227 C 304.841 24.286,304.793 24.333,304.675 24.333 C 304.538 24.333,304.489 24.480,304.539 24.742 C 304.586 24.985,304.543 25.137,304.434 25.117 C 304.333 25.098,304.248 25.252,304.245 25.458 C 304.243 25.665,304.130 25.965,303.994 26.125 C 303.859 26.285,303.757 26.583,303.768 26.787 C 303.779 26.991,303.723 27.118,303.644 27.069 C 303.565 27.020,303.500 27.135,303.500 27.323 C 303.500 27.512,303.425 27.667,303.333 27.667 C 303.242 27.667,303.167 27.746,303.167 27.843 C 303.167 27.940,303.260 27.965,303.375 27.898 C 303.491 27.830,303.469 27.918,303.326 28.096 C 302.900 28.627,302.620 29.290,302.740 29.484 C 302.802 29.585,302.774 29.667,302.677 29.667 C 302.579 29.667,302.500 29.779,302.500 29.917 C 302.500 30.054,302.425 30.167,302.333 30.167 C 302.242 30.167,302.167 30.319,302.167 30.506 C 302.167 30.692,302.035 31.046,301.875 31.291 C 301.662 31.617,301.648 31.697,301.824 31.588 C 301.965 31.502,301.921 31.643,301.718 31.928 C 301.343 32.457,300.974 33.586,301.128 33.739 C 301.180 33.791,301.135 33.833,301.028 33.833 C 300.921 33.833,300.833 33.928,300.833 34.044 C 300.833 34.160,300.688 34.527,300.509 34.859 C 300.331 35.192,300.237 35.515,300.301 35.579 C 300.364 35.642,300.278 35.795,300.110 35.918 C 299.888 36.080,299.836 36.249,299.922 36.529 C 299.988 36.742,299.979 36.858,299.904 36.786 C 299.828 36.714,299.607 37.146,299.412 37.746 C 299.218 38.346,298.996 38.780,298.920 38.710 C 298.843 38.640,298.825 38.709,298.880 38.863 C 298.988 39.164,298.671 39.997,298.447 39.999 C 298.372 39.999,298.361 40.159,298.423 40.354 C 298.499 40.593,298.475 40.671,298.351 40.594 C 298.239 40.525,298.167 40.615,298.167 40.823 C 298.167 41.012,298.108 41.167,298.036 41.167 C 297.965 41.167,297.889 41.367,297.869 41.612 C 297.849 41.858,297.701 42.208,297.541 42.391 C 297.333 42.629,297.321 42.683,297.500 42.580 C 297.717 42.455,297.719 42.474,297.518 42.722 C 297.390 42.879,297.333 43.055,297.390 43.113 C 297.448 43.170,297.382 43.300,297.244 43.401 C 297.106 43.501,296.952 43.807,296.903 44.080 C 296.853 44.353,296.724 44.633,296.615 44.702 C 296.506 44.772,296.482 44.829,296.562 44.831 C 296.642 44.832,296.630 44.927,296.535 45.042 C 296.439 45.156,296.373 45.288,296.386 45.333 C 296.400 45.379,296.281 45.602,296.122 45.829 C 295.963 46.055,295.833 46.145,295.833 46.027 C 295.833 45.904,295.746 45.864,295.625 45.934 C 295.510 45.999,295.466 45.999,295.526 45.932 C 295.586 45.865,295.535 45.618,295.414 45.384 C 295.292 45.150,295.233 44.855,295.281 44.729 C 295.329 44.603,295.292 44.500,295.198 44.500 C 295.104 44.500,294.977 44.274,294.916 43.998 C 294.856 43.722,294.693 43.269,294.554 42.991 C 294.415 42.713,294.283 42.395,294.260 42.284 C 294.117 41.591,293.946 41.180,293.831 41.251 C 293.758 41.297,293.735 41.192,293.780 41.019 C 293.825 40.846,293.781 40.654,293.681 40.592 C 293.582 40.531,293.500 40.335,293.500 40.157 C 293.500 39.979,293.432 39.833,293.350 39.833 C 293.144 39.833,292.811 38.837,292.944 38.622 C 293.003 38.526,292.972 38.498,292.874 38.558 C 292.764 38.626,292.651 38.403,292.580 37.979 C 292.498 37.494,292.420 37.358,292.318 37.520 C 292.211 37.688,292.168 37.638,292.156 37.333 C 292.133 36.683,292.071 36.478,291.619 35.541 C 291.386 35.059,291.261 34.705,291.341 34.755 C 291.421 34.804,291.377 34.636,291.244 34.380 C 291.111 34.125,291.002 33.818,291.001 33.698 C 291.000 33.579,290.923 33.528,290.829 33.586 C 290.735 33.644,290.669 33.630,290.682 33.554 C 290.752 33.153,290.646 32.660,290.509 32.745 C 290.422 32.798,290.379 32.695,290.414 32.515 C 290.448 32.335,290.370 32.100,290.240 31.992 C 290.110 31.884,290.042 31.734,290.088 31.659 C 290.134 31.584,290.095 31.475,290.000 31.417 C 289.905 31.358,289.870 31.243,289.921 31.160 C 289.972 31.077,289.898 30.833,289.756 30.616 C 289.615 30.400,289.538 30.184,289.587 30.135 C 289.635 30.087,289.560 29.953,289.421 29.837 C 289.281 29.721,289.167 29.443,289.167 29.220 C 289.167 28.965,289.098 28.856,288.982 28.928 C 288.858 29.004,288.834 28.926,288.910 28.687 C 288.989 28.439,288.941 28.300,288.752 28.228 C 288.595 28.167,288.521 28.018,288.577 27.873 C 288.630 27.735,288.521 27.364,288.335 27.048 C 288.149 26.733,288.039 26.405,288.091 26.321 C 288.144 26.236,288.114 26.167,288.024 26.167 C 287.935 26.167,287.812 25.867,287.750 25.500 C 287.688 25.133,287.569 24.833,287.485 24.833 C 287.402 24.833,287.333 24.683,287.333 24.500 C 287.333 24.317,287.263 24.167,287.176 24.167 C 287.090 24.167,287.048 24.015,287.084 23.829 C 287.120 23.643,287.083 23.532,287.003 23.582 C 286.922 23.632,286.832 23.465,286.803 23.211 C 286.769 22.917,286.664 22.768,286.513 22.801 C 286.318 22.843,286.314 22.807,286.492 22.593 C 286.637 22.418,286.647 22.333,286.520 22.333 C 286.418 22.333,286.333 22.176,286.333 21.984 C 286.333 21.792,286.227 21.436,286.096 21.192 C 285.843 20.719,285.621 20.167,285.598 19.951 C 285.583 19.818,272.534 19.688,272.403 19.819 M342.506 27.999 C 342.869 27.932,343.167 27.936,343.167 28.006 C 343.167 28.076,343.429 28.133,343.750 28.133 C 344.070 28.133,344.291 28.067,344.241 27.985 C 344.134 27.813,344.653 27.977,344.957 28.212 C 345.071 28.300,345.385 28.339,345.655 28.299 C 345.948 28.257,346.134 28.299,346.115 28.405 C 346.098 28.503,346.215 28.573,346.375 28.560 C 346.535 28.547,346.667 28.612,346.667 28.705 C 346.667 28.797,346.814 28.834,346.994 28.787 C 347.188 28.736,347.307 28.779,347.286 28.892 C 347.266 28.997,347.380 29.073,347.540 29.060 C 347.699 29.048,347.796 29.093,347.754 29.161 C 347.712 29.228,347.973 29.381,348.333 29.500 C 348.694 29.619,348.952 29.776,348.906 29.850 C 348.816 29.996,349.500 30.428,349.721 30.365 C 349.796 30.343,349.817 30.392,349.766 30.474 C 349.716 30.556,350.043 31.007,350.494 31.478 C 350.945 31.948,351.225 32.334,351.116 32.336 C 350.975 32.338,350.971 32.374,351.100 32.461 C 351.299 32.593,351.695 33.422,351.976 34.296 C 352.332 35.400,352.954 35.333,342.247 35.333 C 331.882 35.333,332.198 35.359,332.841 34.568 C 333.054 34.305,333.053 34.287,332.833 34.413 C 332.655 34.516,332.667 34.461,332.875 34.224 C 333.035 34.040,333.167 33.765,333.167 33.612 C 333.167 33.459,333.239 33.333,333.328 33.333 C 333.417 33.333,333.445 33.216,333.390 33.073 C 333.323 32.899,333.409 32.782,333.654 32.718 C 333.855 32.666,333.984 32.533,333.942 32.422 C 333.900 32.312,334.044 32.088,334.263 31.923 C 334.481 31.759,334.625 31.567,334.581 31.496 C 334.538 31.426,334.619 31.323,334.762 31.269 C 334.904 31.214,334.978 31.099,334.925 31.013 C 334.872 30.927,334.970 30.812,335.143 30.757 C 335.317 30.702,335.722 30.401,336.044 30.088 C 336.367 29.775,336.671 29.560,336.721 29.610 C 336.771 29.659,336.972 29.551,337.167 29.368 C 337.363 29.186,337.854 28.944,338.259 28.831 C 338.663 28.718,338.953 28.559,338.904 28.479 C 338.854 28.399,339.001 28.333,339.230 28.333 C 339.459 28.333,339.690 28.263,339.743 28.177 C 339.797 28.091,340.212 28.049,340.667 28.083 C 341.169 28.121,341.539 28.071,341.611 27.956 C 341.690 27.828,341.747 27.824,341.787 27.943 C 341.824 28.056,342.085 28.076,342.506 27.999 " stroke="none" fill="#ececec" fill-rule="evenodd"></path><path id="path1" d="M0.000 0.508 C 0.000 0.950,0.315 2.339,0.490 2.673 C 0.565 2.814,0.681 3.264,0.748 3.673 C 0.816 4.082,0.929 4.492,1.000 4.583 C 1.071 4.675,1.182 5.144,1.247 5.625 C 1.312 6.106,1.433 6.500,1.516 6.500 C 1.599 6.500,1.667 6.725,1.667 7.000 C 1.667 7.275,1.742 7.500,1.833 7.500 C 1.925 7.500,1.987 7.556,1.971 7.625 C 1.910 7.896,2.212 9.333,2.331 9.333 C 2.400 9.333,2.507 9.708,2.568 10.167 C 2.628 10.625,2.743 11.000,2.823 11.000 C 2.902 11.000,3.019 11.450,3.083 12.000 C 3.147 12.550,3.262 13.000,3.338 13.000 C 3.414 13.000,3.528 13.413,3.591 13.917 C 3.654 14.421,3.766 14.833,3.841 14.833 C 3.915 14.833,4.028 15.246,4.091 15.750 C 4.154 16.254,4.262 16.667,4.331 16.667 C 4.400 16.667,4.506 17.039,4.567 17.493 C 4.627 17.948,4.739 18.359,4.816 18.406 C 4.893 18.454,5.006 18.866,5.066 19.323 C 5.127 19.779,5.242 20.194,5.323 20.243 C 5.403 20.293,5.520 20.709,5.583 21.167 C 5.646 21.625,5.757 22.036,5.830 22.081 C 5.902 22.126,6.015 22.520,6.080 22.956 C 6.145 23.393,6.256 23.825,6.328 23.917 C 6.399 24.008,6.509 24.438,6.572 24.871 C 6.635 25.304,6.757 25.703,6.843 25.756 C 6.929 25.809,7.000 26.074,7.000 26.343 C 7.000 26.613,7.066 26.833,7.148 26.833 C 7.229 26.833,7.349 27.190,7.413 27.625 C 7.478 28.060,7.590 28.492,7.661 28.583 C 7.733 28.675,7.843 29.106,7.906 29.542 C 7.969 29.977,8.082 30.333,8.158 30.333 C 8.233 30.333,8.346 30.745,8.409 31.247 C 8.472 31.750,8.588 32.201,8.667 32.250 C 8.746 32.299,8.861 32.750,8.924 33.253 C 8.987 33.755,9.098 34.167,9.170 34.167 C 9.243 34.167,9.354 34.542,9.417 35.000 C 9.480 35.458,9.592 35.871,9.667 35.917 C 9.741 35.963,9.854 36.375,9.917 36.833 C 9.980 37.291,10.099 37.708,10.182 37.760 C 10.265 37.811,10.333 38.031,10.333 38.249 C 10.333 38.467,10.421 38.856,10.529 39.114 C 10.724 39.582,10.971 40.501,11.326 42.083 C 11.429 42.542,11.585 43.047,11.673 43.206 C 11.761 43.365,11.833 43.642,11.833 43.821 C 11.833 44.000,11.903 44.190,11.988 44.243 C 12.074 44.295,12.195 44.750,12.258 45.253 C 12.320 45.755,12.433 46.167,12.507 46.167 C 12.582 46.167,12.694 46.579,12.757 47.083 C 12.820 47.587,12.931 48.000,13.004 48.000 C 13.076 48.000,13.187 48.375,13.250 48.833 C 13.313 49.292,13.424 49.667,13.496 49.667 C 13.569 49.667,13.680 50.079,13.743 50.583 C 13.806 51.087,13.918 51.500,13.993 51.500 C 14.067 51.500,14.180 51.911,14.242 52.414 C 14.305 52.917,14.421 53.368,14.500 53.417 C 14.579 53.465,14.695 53.917,14.758 54.419 C 14.820 54.922,14.931 55.333,15.004 55.333 C 15.076 55.333,15.187 55.708,15.250 56.166 C 15.313 56.625,15.433 57.042,15.516 57.093 C 15.599 57.144,15.667 57.377,15.667 57.610 C 15.667 57.842,15.768 58.269,15.892 58.558 C 16.125 59.103,16.487 60.411,16.625 61.208 C 16.669 61.460,16.771 61.667,16.852 61.667 C 16.934 61.667,17.000 61.780,17.000 61.919 C 17.000 62.140,17.713 62.166,22.792 62.127 L 28.583 62.083 28.743 61.417 C 28.830 61.050,28.952 60.712,29.014 60.667 C 29.075 60.621,29.179 60.265,29.244 59.876 C 29.309 59.487,29.426 59.129,29.505 59.080 C 29.583 59.032,29.698 58.656,29.759 58.246 C 29.821 57.836,29.933 57.500,30.009 57.500 C 30.084 57.500,30.197 57.163,30.259 56.750 C 30.321 56.338,30.431 56.000,30.503 56.000 C 30.576 56.000,30.687 55.625,30.750 55.167 C 30.813 54.708,30.933 54.333,31.016 54.333 C 31.099 54.333,31.167 54.192,31.167 54.019 C 31.167 53.846,31.279 53.490,31.416 53.227 C 31.553 52.965,31.665 52.586,31.666 52.385 C 31.666 52.184,31.735 51.977,31.819 51.926 C 31.903 51.874,32.022 51.532,32.083 51.166 C 32.145 50.800,32.256 50.500,32.329 50.500 C 32.402 50.500,32.513 50.164,32.574 49.754 C 32.636 49.344,32.750 48.968,32.828 48.920 C 32.907 48.871,33.022 48.532,33.083 48.167 C 33.145 47.801,33.258 47.463,33.333 47.417 C 33.409 47.370,33.524 47.013,33.588 46.624 C 33.652 46.235,33.762 45.842,33.833 45.750 C 33.904 45.658,34.015 45.265,34.079 44.875 C 34.143 44.485,34.256 44.167,34.329 44.167 C 34.402 44.167,34.513 43.829,34.575 43.417 C 34.636 43.004,34.750 42.667,34.828 42.667 C 34.905 42.667,35.020 42.292,35.083 41.833 C 35.146 41.375,35.266 41.000,35.349 41.000 C 35.432 41.000,35.500 40.854,35.500 40.677 C 35.500 40.499,35.568 40.311,35.652 40.259 C 35.736 40.207,35.857 39.847,35.921 39.457 C 35.985 39.068,36.096 38.675,36.166 38.583 C 36.237 38.492,36.350 38.154,36.417 37.833 C 36.484 37.512,36.596 37.175,36.667 37.083 C 36.737 36.992,36.850 36.654,36.917 36.333 C 36.984 36.012,37.096 35.675,37.167 35.583 C 37.238 35.492,37.348 35.098,37.412 34.709 C 37.476 34.320,37.591 33.963,37.667 33.917 C 37.742 33.870,37.855 33.532,37.917 33.167 C 37.978 32.801,38.090 32.464,38.166 32.417 C 38.241 32.371,38.354 31.958,38.417 31.500 C 38.480 31.042,38.594 30.628,38.671 30.581 C 38.747 30.534,38.861 30.083,38.924 29.581 C 38.987 29.078,39.096 28.667,39.167 28.667 C 39.237 28.667,39.346 28.254,39.409 27.750 C 39.472 27.246,39.594 26.833,39.679 26.833 C 39.764 26.833,39.833 26.652,39.833 26.430 C 39.833 25.920,39.992 25.500,40.184 25.500 C 40.266 25.500,40.333 25.725,40.333 26.000 C 40.333 26.275,40.398 26.500,40.477 26.500 C 40.556 26.500,40.666 26.883,40.721 27.351 C 40.776 27.819,40.895 28.290,40.984 28.397 C 41.072 28.504,41.197 28.984,41.261 29.462 C 41.324 29.941,41.433 30.333,41.502 30.333 C 41.572 30.333,41.680 30.745,41.742 31.247 C 41.805 31.750,41.918 32.199,41.992 32.245 C 42.067 32.291,42.179 32.666,42.240 33.077 C 42.302 33.489,42.417 33.865,42.495 33.914 C 42.574 33.962,42.688 34.301,42.750 34.667 C 42.812 35.032,42.926 35.371,43.005 35.420 C 43.083 35.468,43.198 35.844,43.259 36.254 C 43.321 36.664,43.429 37.000,43.500 37.000 C 43.571 37.000,43.679 37.337,43.741 37.750 C 43.803 38.162,43.916 38.500,43.991 38.500 C 44.067 38.500,44.179 38.836,44.241 39.246 C 44.302 39.656,44.423 40.036,44.510 40.089 C 44.596 40.143,44.667 40.365,44.667 40.583 C 44.667 40.802,44.735 41.023,44.819 41.074 C 44.903 41.126,45.022 41.468,45.083 41.833 C 45.145 42.199,45.258 42.537,45.333 42.583 C 45.409 42.630,45.522 42.968,45.583 43.333 C 45.645 43.699,45.760 44.038,45.838 44.086 C 45.917 44.135,46.031 44.510,46.093 44.921 C 46.154 45.331,46.262 45.667,46.333 45.667 C 46.404 45.667,46.513 46.004,46.575 46.417 C 46.636 46.829,46.749 47.167,46.825 47.167 C 46.900 47.167,47.013 47.504,47.075 47.917 C 47.136 48.329,47.257 48.667,47.344 48.667 C 47.430 48.667,47.500 48.816,47.500 48.998 C 47.500 49.179,47.715 49.986,47.978 50.789 C 48.536 52.492,48.732 53.201,48.694 53.375 C 48.679 53.444,48.733 53.500,48.814 53.500 C 48.941 53.500,49.111 54.071,49.197 54.792 C 49.211 54.906,49.285 55.000,49.361 55.000 C 49.438 55.000,49.500 55.121,49.500 55.269 C 49.500 55.594,50.041 57.216,50.188 57.333 C 50.245 57.379,50.346 57.735,50.411 58.125 C 50.476 58.515,50.588 58.833,50.660 58.833 C 50.732 58.833,50.840 59.208,50.901 59.667 C 50.962 60.125,51.071 60.500,51.144 60.500 C 51.218 60.500,51.346 60.856,51.430 61.292 L 51.583 62.083 57.314 62.127 C 63.771 62.177,63.419 62.250,63.584 60.826 C 63.648 60.280,63.757 59.833,63.827 59.833 C 63.897 59.833,64.001 59.497,64.057 59.087 C 64.113 58.676,64.227 58.208,64.309 58.045 C 64.564 57.542,64.826 56.603,64.938 55.784 C 64.997 55.353,65.101 55.000,65.170 55.000 C 65.239 55.000,65.346 54.587,65.409 54.083 C 65.472 53.579,65.588 53.167,65.667 53.167 C 65.745 53.167,65.862 52.735,65.927 52.208 C 65.992 51.681,66.094 51.212,66.153 51.167 C 66.213 51.121,66.353 50.690,66.464 50.208 C 66.576 49.727,66.758 48.940,66.869 48.458 C 66.980 47.977,67.116 47.546,67.171 47.500 C 67.226 47.454,67.357 47.004,67.462 46.500 C 67.800 44.872,68.082 43.754,68.199 43.574 C 68.262 43.477,68.365 43.008,68.428 42.532 C 68.491 42.056,68.600 41.667,68.669 41.667 C 68.739 41.667,68.838 41.460,68.891 41.208 C 69.056 40.415,69.438 38.927,69.544 38.667 C 69.638 38.434,69.718 38.108,70.215 35.917 C 70.320 35.458,70.456 35.046,70.519 35.000 C 70.582 34.954,70.687 34.485,70.752 33.958 C 70.818 33.431,70.933 33.000,71.007 33.000 C 71.082 33.000,71.194 32.587,71.257 32.081 C 71.321 31.576,71.431 31.126,71.504 31.081 C 71.576 31.036,71.687 30.625,71.750 30.167 C 71.813 29.709,71.927 29.295,72.004 29.248 C 72.081 29.200,72.195 28.750,72.258 28.247 C 72.320 27.745,72.429 27.333,72.500 27.333 C 72.571 27.333,72.680 26.922,72.742 26.419 C 72.805 25.917,72.921 25.465,73.000 25.417 C 73.079 25.368,73.195 24.917,73.258 24.414 C 73.320 23.911,73.438 23.500,73.519 23.500 C 73.600 23.500,73.667 23.279,73.667 23.010 C 73.667 22.740,73.735 22.478,73.818 22.426 C 73.901 22.375,74.020 21.958,74.083 21.500 C 74.146 21.042,74.261 20.628,74.337 20.581 C 74.414 20.534,74.528 20.082,74.591 19.579 C 74.654 19.075,74.765 18.626,74.837 18.581 C 74.910 18.536,75.020 18.125,75.083 17.667 C 75.146 17.209,75.261 16.795,75.337 16.748 C 75.414 16.700,75.528 16.250,75.591 15.747 C 75.654 15.245,75.763 14.833,75.833 14.833 C 75.904 14.833,76.013 14.422,76.076 13.919 C 76.139 13.417,76.254 12.965,76.333 12.917 C 76.412 12.868,76.528 12.417,76.591 11.914 C 76.654 11.411,76.763 11.000,76.833 11.000 C 76.904 11.000,77.013 10.589,77.076 10.086 C 77.139 9.583,77.254 9.132,77.333 9.083 C 77.412 9.035,77.528 8.583,77.591 8.081 C 77.654 7.578,77.764 7.167,77.836 7.167 C 77.908 7.167,78.019 6.717,78.083 6.167 C 78.147 5.617,78.267 5.167,78.350 5.167 C 78.432 5.167,78.500 4.984,78.500 4.760 C 78.500 4.536,78.568 4.311,78.651 4.260 C 78.734 4.208,78.856 3.773,78.921 3.291 C 78.987 2.810,79.092 2.379,79.156 2.333 C 79.304 2.226,79.637 0.359,79.527 0.249 C 79.482 0.204,76.622 0.167,73.172 0.167 L 66.900 0.167 66.705 0.708 C 66.598 1.006,66.463 1.550,66.406 1.917 C 66.348 2.283,66.241 2.658,66.167 2.750 C 66.093 2.842,65.979 3.349,65.913 3.877 C 65.848 4.405,65.732 4.877,65.655 4.924 C 65.578 4.971,65.465 5.458,65.403 6.005 C 65.341 6.552,65.232 7.000,65.162 7.000 C 65.091 7.000,64.981 7.450,64.917 8.000 C 64.853 8.550,64.733 9.000,64.650 9.000 C 64.568 9.000,64.500 9.156,64.500 9.348 C 64.500 9.772,64.014 11.810,63.821 12.194 C 63.745 12.346,63.631 12.852,63.570 13.319 C 63.508 13.785,63.399 14.167,63.328 14.167 C 63.257 14.167,63.147 14.617,63.083 15.167 C 63.019 15.717,62.907 16.205,62.833 16.250 C 62.758 16.296,62.645 16.727,62.580 17.209 C 62.516 17.690,62.404 18.158,62.333 18.250 C 62.262 18.342,62.151 18.810,62.086 19.291 C 62.022 19.773,61.908 20.204,61.834 20.250 C 61.760 20.295,61.647 20.783,61.583 21.333 C 61.520 21.883,61.407 22.333,61.333 22.333 C 61.260 22.333,61.147 22.783,61.083 23.333 C 61.019 23.883,60.907 24.333,60.833 24.333 C 60.760 24.333,60.647 24.783,60.583 25.333 C 60.519 25.883,60.407 26.333,60.333 26.333 C 60.260 26.333,60.147 26.783,60.083 27.333 C 60.019 27.883,59.910 28.333,59.839 28.333 C 59.768 28.333,59.660 28.652,59.598 29.042 C 59.431 30.088,59.403 30.226,59.293 30.500 C 59.239 30.637,59.153 30.938,59.102 31.167 C 58.728 32.875,58.580 33.427,58.481 33.500 C 58.418 33.546,58.313 34.016,58.247 34.544 C 58.182 35.072,58.069 35.541,57.998 35.585 C 57.926 35.629,57.815 36.191,57.750 36.833 C 57.686 37.475,57.575 38.000,57.505 38.000 C 57.434 38.000,57.323 38.544,57.257 39.208 C 57.192 39.873,57.080 40.492,57.008 40.583 C 56.937 40.675,56.837 41.075,56.787 41.472 C 56.638 42.642,56.368 42.662,56.214 41.514 C 56.164 41.140,56.066 40.833,55.997 40.833 C 55.928 40.833,55.820 40.422,55.758 39.919 C 55.695 39.417,55.581 38.966,55.504 38.919 C 55.427 38.872,55.313 38.458,55.250 38.000 C 55.187 37.542,55.067 37.125,54.984 37.074 C 54.901 37.022,54.833 36.760,54.833 36.490 C 54.833 36.221,54.767 36.000,54.686 36.000 C 54.604 36.000,54.487 35.662,54.425 35.250 C 54.364 34.837,54.252 34.500,54.178 34.500 C 54.104 34.500,53.994 34.128,53.933 33.674 C 53.873 33.219,53.755 32.805,53.671 32.753 C 53.588 32.701,53.469 32.323,53.407 31.913 C 53.346 31.502,53.238 31.167,53.167 31.167 C 53.096 31.167,52.987 30.829,52.925 30.417 C 52.864 30.004,52.751 29.667,52.675 29.667 C 52.600 29.667,52.487 29.329,52.425 28.917 C 52.364 28.504,52.251 28.167,52.175 28.167 C 52.100 28.167,51.987 27.829,51.925 27.417 C 51.864 27.004,51.750 26.667,51.672 26.667 C 51.595 26.667,51.480 26.292,51.417 25.833 C 51.354 25.375,51.243 25.000,51.170 25.000 C 51.097 25.000,50.987 24.664,50.926 24.254 C 50.864 23.844,50.743 23.464,50.657 23.411 C 50.571 23.357,50.500 23.149,50.499 22.948 C 50.498 22.748,50.386 22.369,50.249 22.106 C 50.112 21.843,50.000 21.487,50.000 21.314 C 50.000 21.141,49.934 21.000,49.852 21.000 C 49.771 21.000,49.654 20.662,49.592 20.250 C 49.530 19.837,49.418 19.500,49.342 19.500 C 49.266 19.500,49.154 19.162,49.092 18.750 C 49.030 18.337,48.919 18.000,48.845 18.000 C 48.770 18.000,48.660 17.628,48.600 17.174 C 48.540 16.719,48.424 16.306,48.343 16.256 C 48.262 16.206,48.145 15.866,48.083 15.500 C 48.022 15.134,47.911 14.798,47.838 14.753 C 47.765 14.708,47.654 14.332,47.592 13.919 C 47.530 13.505,47.418 13.167,47.342 13.167 C 47.266 13.167,47.154 12.829,47.092 12.417 C 47.030 12.004,46.916 11.667,46.839 11.667 C 46.761 11.667,46.646 11.292,46.583 10.833 C 46.520 10.375,46.401 10.000,46.318 10.000 C 46.235 10.000,46.167 9.861,46.167 9.692 C 46.167 9.522,46.084 9.147,45.984 8.858 L 45.801 8.333 40.192 8.336 C 34.003 8.339,34.255 8.299,34.089 9.291 C 34.024 9.680,33.909 10.037,33.833 10.083 C 33.758 10.130,33.643 10.487,33.579 10.876 C 33.515 11.265,33.404 11.658,33.333 11.750 C 33.262 11.842,33.152 12.235,33.088 12.625 C 33.023 13.015,32.911 13.333,32.838 13.333 C 32.764 13.333,32.654 13.671,32.592 14.083 C 32.530 14.496,32.416 14.833,32.339 14.833 C 32.261 14.833,32.146 15.208,32.083 15.667 C 32.020 16.125,31.909 16.500,31.837 16.500 C 31.764 16.500,31.654 16.836,31.593 17.246 C 31.531 17.656,31.419 18.031,31.343 18.077 C 31.267 18.124,31.154 18.501,31.092 18.915 C 31.030 19.328,30.909 19.667,30.823 19.667 C 30.737 19.667,30.664 19.798,30.661 19.958 C 30.656 20.265,30.157 21.787,29.961 22.099 C 29.897 22.200,29.796 22.593,29.735 22.974 C 29.674 23.355,29.561 23.667,29.484 23.667 C 29.408 23.667,29.295 24.042,29.234 24.500 C 29.173 24.958,29.063 25.333,28.989 25.333 C 28.914 25.333,28.803 25.671,28.741 26.083 C 28.679 26.496,28.571 26.833,28.500 26.833 C 28.429 26.833,28.321 27.171,28.259 27.583 C 28.197 27.996,28.083 28.333,28.005 28.333 C 27.928 28.333,27.813 28.708,27.750 29.166 C 27.687 29.625,27.572 30.039,27.494 30.087 C 27.416 30.135,27.302 30.510,27.241 30.921 C 27.179 31.331,27.071 31.667,27.000 31.667 C 26.929 31.667,26.821 32.004,26.759 32.417 C 26.697 32.829,26.584 33.167,26.509 33.167 C 26.433 33.167,26.326 33.410,26.270 33.708 C 26.168 34.252,26.135 34.370,25.951 34.833 C 25.664 35.559,25.333 36.717,25.333 36.996 C 25.333 37.171,25.264 37.357,25.178 37.409 C 25.093 37.462,24.972 37.917,24.909 38.419 C 24.846 38.922,24.734 39.333,24.659 39.333 C 24.585 39.333,24.472 39.746,24.409 40.250 C 24.346 40.754,24.229 41.167,24.147 41.167 C 24.066 41.167,23.999 41.335,23.998 41.542 C 23.990 42.862,23.562 42.983,23.408 41.708 C 23.344 41.181,23.234 40.675,23.162 40.583 C 23.091 40.492,22.979 39.910,22.914 39.292 C 22.848 38.673,22.739 38.167,22.670 38.167 C 22.602 38.167,22.496 37.674,22.434 37.072 C 22.372 36.470,22.254 35.851,22.172 35.697 C 22.021 35.413,21.711 34.299,21.550 33.458 C 21.502 33.206,21.403 33.000,21.331 33.000 C 21.259 33.000,21.147 32.550,21.083 32.000 C 21.019 31.450,20.908 31.000,20.836 31.000 C 20.764 31.000,20.654 30.588,20.591 30.083 C 20.528 29.579,20.414 29.167,20.338 29.167 C 20.262 29.167,20.147 28.717,20.083 28.167 C 20.019 27.617,19.908 27.167,19.836 27.167 C 19.764 27.167,19.654 26.755,19.591 26.253 C 19.528 25.750,19.412 25.299,19.333 25.250 C 19.254 25.201,19.139 24.750,19.076 24.247 C 19.013 23.745,18.904 23.333,18.833 23.333 C 18.763 23.333,18.654 22.922,18.591 22.419 C 18.528 21.917,18.412 21.465,18.333 21.417 C 18.254 21.368,18.139 20.917,18.076 20.414 C 18.013 19.911,17.904 19.500,17.833 19.500 C 17.763 19.500,17.654 19.089,17.591 18.586 C 17.528 18.083,17.414 17.633,17.337 17.586 C 17.261 17.538,17.146 17.125,17.083 16.667 C 17.020 16.209,16.901 15.792,16.818 15.740 C 16.735 15.689,16.667 15.426,16.667 15.157 C 16.667 14.887,16.600 14.667,16.519 14.667 C 16.438 14.667,16.320 14.254,16.257 13.750 C 16.194 13.246,16.080 12.833,16.004 12.833 C 15.928 12.833,15.814 12.383,15.750 11.833 C 15.686 11.283,15.575 10.833,15.503 10.833 C 15.431 10.833,15.320 10.422,15.258 9.919 C 15.195 9.417,15.081 8.966,15.004 8.919 C 14.927 8.872,14.811 8.439,14.745 7.958 C 14.680 7.477,14.576 7.046,14.516 7.000 C 14.407 6.919,14.176 6.010,13.794 4.167 C 13.690 3.663,13.560 3.212,13.505 3.167 C 13.450 3.121,13.312 2.671,13.198 2.167 C 13.084 1.662,12.934 1.025,12.864 0.750 L 12.736 0.250 6.368 0.206 C 0.026 0.163,0.000 0.164,0.000 0.508 M192.562 10.125 C 192.601 15.602,192.676 20.383,192.729 20.750 C 192.783 21.117,192.875 22.017,192.934 22.750 C 192.993 23.483,193.126 24.191,193.229 24.323 C 193.381 24.517,193.359 24.541,193.111 24.448 C 192.943 24.385,192.775 24.333,192.736 24.333 C 192.698 24.333,192.667 24.217,192.667 24.075 C 192.667 23.670,189.648 20.797,188.736 20.333 C 188.285 20.104,187.878 19.866,187.832 19.805 C 187.785 19.743,187.541 19.642,187.290 19.578 C 187.039 19.515,186.833 19.400,186.833 19.323 C 186.833 19.245,186.570 19.132,186.248 19.072 C 185.926 19.012,185.626 18.902,185.580 18.828 C 185.534 18.753,185.010 18.641,184.415 18.577 C 183.820 18.513,183.333 18.395,183.333 18.314 C 183.333 18.120,176.714 18.122,176.593 18.317 C 176.542 18.400,176.050 18.519,175.500 18.583 C 174.950 18.647,174.500 18.757,174.500 18.828 C 174.500 18.899,174.197 19.006,173.826 19.065 C 173.455 19.124,173.024 19.240,172.868 19.322 C 172.711 19.405,171.983 19.758,171.250 20.109 C 170.517 20.459,169.730 20.916,169.502 21.123 C 169.273 21.330,169.024 21.500,168.948 21.500 C 168.872 21.500,168.705 21.594,168.577 21.708 C 168.062 22.170,167.842 22.333,167.734 22.333 C 167.422 22.333,163.500 26.639,163.500 26.981 C 163.500 27.083,163.442 27.167,163.372 27.167 C 163.301 27.167,163.059 27.504,162.833 27.917 C 162.608 28.329,162.366 28.667,162.295 28.667 C 162.224 28.667,162.167 28.752,162.167 28.857 C 162.167 28.961,162.024 29.355,161.849 29.732 C 161.202 31.124,161.000 31.640,161.000 31.900 C 161.000 32.047,160.932 32.167,160.848 32.167 C 160.764 32.167,160.643 32.485,160.579 32.875 C 160.515 33.265,160.396 33.666,160.315 33.767 C 160.233 33.868,160.119 34.412,160.060 34.975 C 160.001 35.539,159.899 36.000,159.834 36.000 C 159.658 36.000,159.483 38.289,159.477 40.667 C 159.471 42.988,159.651 45.333,159.836 45.333 C 159.903 45.333,160.009 45.858,160.072 46.500 C 160.135 47.142,160.247 47.667,160.321 47.667 C 160.396 47.667,160.498 47.977,160.549 48.357 C 160.600 48.737,160.711 49.093,160.797 49.149 C 160.882 49.205,161.004 49.531,161.067 49.875 C 161.130 50.219,161.245 50.500,161.322 50.500 C 161.400 50.500,161.512 50.762,161.572 51.083 C 161.633 51.404,161.753 51.667,161.841 51.667 C 161.928 51.667,162.000 51.784,162.000 51.928 C 162.000 52.072,162.215 52.503,162.477 52.887 C 162.740 53.270,163.007 53.752,163.072 53.958 C 163.136 54.165,163.259 54.333,163.345 54.333 C 163.430 54.333,163.500 54.408,163.500 54.500 C 163.500 54.592,163.631 54.806,163.792 54.976 C 163.952 55.146,164.271 55.529,164.500 55.828 C 165.023 56.508,166.856 58.351,167.519 58.864 C 167.794 59.076,168.176 59.381,168.368 59.542 C 168.560 59.702,168.811 59.833,168.924 59.833 C 169.038 59.833,169.174 59.946,169.227 60.083 C 169.280 60.221,169.438 60.333,169.578 60.333 C 169.718 60.333,169.833 60.408,169.833 60.500 C 169.833 60.592,169.940 60.667,170.069 60.667 C 170.199 60.667,170.331 60.723,170.361 60.792 C 170.447 60.984,171.783 61.667,172.075 61.667 C 172.217 61.667,172.333 61.741,172.333 61.831 C 172.333 61.922,172.633 62.044,173.000 62.103 C 173.367 62.161,173.667 62.264,173.667 62.330 C 173.667 62.628,176.287 62.833,180.102 62.833 C 184.028 62.833,186.333 62.642,186.333 62.316 C 186.333 62.234,186.450 62.167,186.592 62.167 C 187.013 62.167,188.754 61.271,189.385 60.730 C 189.586 60.557,189.954 60.285,190.203 60.125 C 190.804 59.737,192.167 58.306,192.167 58.062 C 192.167 57.956,192.279 57.826,192.417 57.773 C 192.554 57.720,192.667 57.562,192.667 57.422 C 192.667 57.278,192.812 57.167,193.000 57.167 C 193.319 57.167,193.333 57.278,193.333 59.667 L 193.333 62.167 198.750 62.167 C 203.454 62.167,204.167 62.134,204.167 61.917 C 204.167 61.779,204.092 61.667,204.000 61.667 C 203.889 61.667,203.833 51.389,203.833 31.167 C 203.833 10.944,203.889 0.667,204.000 0.667 C 204.092 0.667,204.167 0.554,204.167 0.417 C 204.167 0.199,203.407 0.167,198.330 0.167 L 192.492 0.167 192.562 10.125 M96.930 18.311 C 96.881 18.391,96.316 18.508,95.674 18.571 C 95.033 18.634,94.469 18.748,94.423 18.824 C 94.376 18.900,93.999 19.012,93.585 19.074 C 93.172 19.136,92.833 19.248,92.833 19.322 C 92.833 19.397,92.533 19.505,92.167 19.564 C 91.800 19.623,91.500 19.745,91.500 19.835 C 91.500 19.926,91.369 20.002,91.208 20.004 C 90.905 20.008,88.308 21.355,88.000 21.668 C 87.954 21.715,87.636 21.940,87.293 22.168 C 86.950 22.397,86.668 22.640,86.668 22.708 C 86.667 22.777,86.568 22.833,86.448 22.833 C 86.089 22.833,82.833 26.134,82.833 26.499 C 82.833 26.591,82.762 26.667,82.676 26.667 C 82.520 26.667,82.109 27.308,81.901 27.875 C 81.843 28.035,81.735 28.167,81.663 28.167 C 81.499 28.167,80.333 30.442,80.333 30.763 C 80.333 30.893,80.262 31.000,80.174 31.000 C 80.087 31.000,79.966 31.262,79.906 31.583 C 79.845 31.904,79.738 32.167,79.667 32.167 C 79.596 32.167,79.487 32.504,79.425 32.917 C 79.364 33.329,79.250 33.667,79.173 33.667 C 79.097 33.667,78.981 34.192,78.917 34.833 C 78.852 35.475,78.739 36.000,78.665 36.000 C 78.473 36.000,78.332 37.707,78.301 40.417 C 78.274 42.844,78.460 45.333,78.669 45.333 C 78.736 45.333,78.842 45.858,78.905 46.500 C 78.968 47.142,79.082 47.667,79.158 47.667 C 79.234 47.667,79.346 48.004,79.408 48.417 C 79.470 48.829,79.581 49.167,79.656 49.167 C 79.730 49.167,79.839 49.467,79.897 49.833 C 79.956 50.200,80.072 50.500,80.155 50.500 C 80.239 50.500,80.356 50.725,80.417 51.000 C 80.477 51.275,80.590 51.500,80.667 51.500 C 80.744 51.500,80.856 51.725,80.917 52.000 C 80.977 52.275,81.087 52.500,81.162 52.500 C 81.236 52.500,81.344 52.688,81.402 52.917 C 81.459 53.146,81.580 53.333,81.670 53.333 C 81.760 53.333,81.833 53.448,81.833 53.589 C 81.833 53.729,81.946 53.887,82.083 53.940 C 82.221 53.992,82.333 54.107,82.333 54.194 C 82.333 54.596,86.090 58.667,86.461 58.667 C 86.546 58.667,86.751 58.817,86.917 59.000 C 87.083 59.183,87.319 59.333,87.442 59.333 C 87.566 59.333,87.667 59.407,87.667 59.497 C 87.667 59.587,87.854 59.707,88.083 59.765 C 88.313 59.822,88.500 59.936,88.500 60.018 C 88.500 60.100,88.607 60.167,88.738 60.167 C 88.869 60.167,89.090 60.280,89.229 60.419 C 89.521 60.712,91.483 61.666,91.792 61.667 C 91.906 61.667,92.000 61.733,92.000 61.814 C 92.000 61.896,92.337 62.013,92.750 62.075 C 93.162 62.136,93.500 62.245,93.500 62.315 C 93.500 63.028,107.452 63.023,108.242 62.310 C 108.329 62.231,108.516 62.166,108.658 62.166 C 108.800 62.165,109.118 62.060,109.364 61.931 C 109.610 61.803,110.041 61.648,110.322 61.586 C 110.603 61.524,110.834 61.423,110.835 61.362 C 110.836 61.300,111.173 61.102,111.585 60.921 C 111.997 60.740,112.333 60.540,112.333 60.476 C 112.333 60.412,112.558 60.310,112.833 60.250 C 113.108 60.190,113.333 60.073,113.333 59.990 C 113.333 59.907,113.521 59.793,113.750 59.735 C 113.979 59.678,114.167 59.561,114.167 59.477 C 114.167 59.392,114.298 59.275,114.458 59.216 C 114.619 59.156,114.915 58.934,115.117 58.721 C 115.319 58.508,115.562 58.333,115.658 58.333 C 115.874 58.333,118.085 56.118,118.463 55.522 C 118.617 55.281,118.838 55.023,118.954 54.950 C 119.071 54.877,119.167 54.714,119.167 54.589 C 119.167 54.464,119.223 54.336,119.292 54.306 C 119.481 54.221,120.167 53.204,120.167 53.007 C 120.167 52.911,120.234 52.833,120.315 52.833 C 120.397 52.833,120.511 52.646,120.568 52.417 C 120.626 52.188,120.747 52.000,120.837 52.000 C 120.926 52.000,121.000 51.888,121.000 51.751 C 121.000 51.413,121.549 50.167,121.698 50.167 C 121.764 50.167,121.868 49.903,121.928 49.581 C 121.988 49.260,122.100 48.958,122.176 48.911 C 122.252 48.864,122.365 48.489,122.426 48.077 C 122.488 47.666,122.599 47.292,122.673 47.246 C 122.747 47.201,122.861 46.658,122.926 46.040 C 122.991 45.422,123.126 44.864,123.226 44.800 C 123.500 44.625,123.479 36.632,123.204 36.540 C 123.092 36.503,122.998 36.235,122.996 35.944 C 122.994 35.654,122.913 35.117,122.817 34.750 C 122.721 34.383,122.563 33.727,122.466 33.292 C 122.369 32.856,122.234 32.500,122.166 32.500 C 122.098 32.500,121.995 32.200,121.936 31.833 C 121.877 31.467,121.755 31.167,121.665 31.167 C 121.574 31.167,121.500 31.017,121.500 30.833 C 121.500 30.650,121.431 30.500,121.347 30.500 C 121.262 30.500,121.145 30.280,121.086 30.012 C 121.027 29.743,120.871 29.434,120.739 29.324 C 120.608 29.215,120.500 29.023,120.500 28.896 C 120.500 28.770,120.433 28.667,120.351 28.667 C 120.270 28.667,120.159 28.492,120.105 28.279 C 120.052 28.065,119.819 27.686,119.587 27.437 C 119.356 27.187,119.167 26.926,119.167 26.857 C 119.167 26.340,115.091 22.333,114.565 22.333 C 114.457 22.333,114.326 22.221,114.273 22.083 C 114.220 21.946,114.062 21.833,113.922 21.833 C 113.782 21.833,113.667 21.770,113.667 21.693 C 113.667 21.617,113.368 21.410,113.002 21.235 C 112.636 21.060,112.336 20.866,112.335 20.805 C 112.334 20.743,112.108 20.644,111.833 20.583 C 111.558 20.523,111.333 20.404,111.333 20.320 C 111.333 20.236,111.240 20.164,111.125 20.161 C 111.010 20.158,110.617 20.010,110.250 19.833 C 109.883 19.656,109.457 19.509,109.302 19.506 C 109.146 19.503,108.976 19.429,108.923 19.343 C 108.869 19.257,108.471 19.134,108.038 19.070 C 107.605 19.006,107.209 18.891,107.160 18.815 C 107.110 18.738,106.529 18.625,105.868 18.564 C 105.207 18.502,104.667 18.388,104.667 18.309 C 104.667 18.122,97.046 18.124,96.930 18.311 M150.167 18.318 C 150.029 18.395,149.562 18.510,149.129 18.572 C 148.696 18.635,148.303 18.748,148.256 18.824 C 148.209 18.900,147.907 19.012,147.585 19.072 C 147.263 19.132,147.000 19.247,147.000 19.328 C 147.000 19.408,146.775 19.523,146.500 19.583 C 146.225 19.644,146.000 19.754,146.000 19.829 C 146.000 19.903,145.813 20.011,145.583 20.068 C 145.354 20.126,145.167 20.247,145.167 20.337 C 145.167 20.426,145.084 20.500,144.982 20.500 C 144.429 20.500,141.854 23.020,141.023 24.375 C 140.404 25.384,140.333 25.165,140.333 22.250 L 140.333 19.500 134.749 19.500 L 129.165 19.500 129.208 40.792 L 129.250 62.083 134.980 62.127 C 138.963 62.158,140.778 62.115,140.931 61.988 C 141.110 61.839,141.162 59.516,141.201 49.777 C 141.236 41.284,141.305 37.652,141.437 37.417 C 141.540 37.233,141.799 36.540,142.014 35.875 C 142.229 35.210,142.464 34.667,142.536 34.667 C 142.608 34.667,142.667 34.573,142.667 34.458 C 142.667 34.236,143.563 32.913,144.029 32.447 C 144.182 32.294,144.445 31.997,144.612 31.787 C 144.780 31.577,145.217 31.224,145.583 31.001 C 145.950 30.778,146.349 30.499,146.470 30.381 C 146.591 30.263,146.835 30.167,147.012 30.167 C 147.189 30.167,147.333 30.096,147.333 30.010 C 147.333 29.924,147.671 29.803,148.083 29.741 C 148.496 29.679,148.833 29.562,148.833 29.481 C 148.833 29.290,153.452 29.287,153.570 29.478 C 153.619 29.558,154.030 29.672,154.484 29.732 C 154.937 29.792,155.333 29.916,155.364 30.008 C 155.394 30.100,155.689 30.218,156.019 30.272 C 156.657 30.375,156.825 30.155,156.831 29.208 C 156.832 29.002,156.898 28.833,156.978 28.833 C 157.057 28.833,157.202 28.477,157.298 28.042 C 157.602 26.677,157.851 25.759,157.991 25.494 C 158.065 25.353,158.179 24.921,158.244 24.535 C 158.309 24.149,158.422 23.833,158.495 23.833 C 158.568 23.833,158.680 23.421,158.743 22.917 C 158.806 22.412,158.920 22.000,158.996 22.000 C 159.073 22.000,159.187 21.625,159.250 21.167 C 159.313 20.708,159.433 20.333,159.516 20.333 C 159.877 20.333,159.646 19.668,159.250 19.568 C 159.021 19.511,158.833 19.397,158.833 19.315 C 158.833 19.234,158.740 19.164,158.625 19.161 C 158.510 19.158,158.117 19.010,157.750 18.833 C 157.383 18.656,156.840 18.509,156.542 18.506 C 156.244 18.503,156.000 18.425,156.000 18.333 C 156.000 18.128,150.530 18.113,150.167 18.318 M103.961 29.467 C 103.998 29.577,104.140 29.667,104.277 29.667 C 104.640 29.667,107.000 30.830,107.000 31.008 C 107.000 31.092,107.188 31.207,107.417 31.265 C 107.646 31.322,107.833 31.424,107.833 31.492 C 107.833 31.559,108.115 31.909,108.458 32.271 C 108.802 32.633,109.233 33.113,109.417 33.339 C 109.775 33.781,111.005 36.170,111.059 36.531 C 111.078 36.651,111.137 36.825,111.192 36.917 C 111.703 37.773,111.670 43.868,111.152 44.408 C 111.068 44.495,111.000 44.668,111.000 44.792 C 111.000 45.037,110.425 46.428,110.156 46.833 C 110.065 46.971,109.946 47.215,109.892 47.375 C 109.839 47.535,109.733 47.667,109.658 47.667 C 109.584 47.667,109.478 47.808,109.423 47.980 C 109.290 48.399,107.408 50.287,106.992 50.419 C 106.810 50.477,106.705 50.594,106.757 50.679 C 106.810 50.764,106.704 50.833,106.522 50.833 C 106.340 50.833,106.077 50.947,105.938 51.086 C 105.800 51.224,105.457 51.384,105.176 51.440 C 104.896 51.496,104.667 51.603,104.667 51.677 C 104.667 51.752,104.328 51.864,103.915 51.926 C 103.501 51.988,103.122 52.105,103.071 52.186 C 103.021 52.267,102.014 52.333,100.833 52.333 C 99.652 52.333,98.645 52.267,98.595 52.186 C 98.545 52.105,98.166 51.988,97.752 51.926 C 97.338 51.864,97.000 51.751,97.000 51.675 C 97.000 51.599,96.737 51.488,96.417 51.428 C 96.096 51.367,95.833 51.252,95.833 51.170 C 95.833 51.089,95.675 50.972,95.482 50.911 C 94.906 50.728,92.314 48.324,92.118 47.792 C 92.059 47.631,91.939 47.500,91.852 47.500 C 91.765 47.500,91.644 47.275,91.583 47.000 C 91.523 46.725,91.404 46.500,91.320 46.500 C 91.236 46.500,91.166 46.406,91.166 46.292 C 91.165 46.177,91.052 45.867,90.914 45.603 C 90.776 45.339,90.615 44.814,90.556 44.436 C 90.498 44.059,90.368 43.697,90.269 43.633 C 90.018 43.470,90.032 37.853,90.284 37.697 C 90.385 37.634,90.521 37.227,90.586 36.792 C 90.651 36.356,90.765 36.000,90.839 36.000 C 90.913 36.000,91.023 35.775,91.083 35.500 C 91.144 35.225,91.256 35.000,91.333 35.000 C 91.410 35.000,91.523 34.775,91.583 34.500 C 91.644 34.225,91.757 34.000,91.835 34.000 C 91.914 34.000,92.026 33.848,92.085 33.663 C 92.257 33.121,94.870 30.667,95.276 30.667 C 95.399 30.667,95.500 30.593,95.500 30.503 C 95.500 30.413,95.688 30.293,95.917 30.235 C 96.146 30.178,96.333 30.079,96.333 30.016 C 96.333 29.954,96.690 29.797,97.125 29.668 C 97.560 29.540,98.104 29.378,98.333 29.310 C 99.036 29.102,103.884 29.236,103.961 29.467 M185.303 29.442 C 185.365 29.539,185.698 29.670,186.042 29.734 C 186.385 29.797,186.667 29.914,186.667 29.994 C 186.667 30.075,186.892 30.190,187.167 30.250 C 187.442 30.310,187.667 30.429,187.667 30.513 C 187.667 30.598,187.764 30.667,187.883 30.667 C 188.460 30.667,191.167 33.408,191.167 33.993 C 191.167 34.089,191.229 34.167,191.306 34.167 C 191.513 34.167,192.551 36.337,192.780 37.250 C 192.826 37.433,192.904 37.977,192.952 38.458 C 193.001 38.940,193.107 39.333,193.187 39.333 C 193.268 39.333,193.333 39.971,193.333 40.750 C 193.333 41.529,193.266 42.167,193.183 42.167 C 193.100 42.167,192.991 42.560,192.941 43.042 C 192.823 44.161,192.793 44.284,192.446 45.074 C 192.287 45.435,192.114 45.904,192.060 46.115 C 192.007 46.327,191.915 46.500,191.856 46.500 C 191.797 46.500,191.655 46.711,191.541 46.969 C 191.426 47.226,191.183 47.598,191.000 47.795 C 190.817 47.992,190.667 48.204,190.667 48.266 C 190.667 48.448,188.934 50.159,188.745 50.163 C 188.651 50.165,188.467 50.314,188.338 50.494 C 188.208 50.674,187.891 50.867,187.634 50.924 C 187.377 50.980,187.167 51.090,187.167 51.167 C 187.167 51.244,186.942 51.356,186.667 51.417 C 186.392 51.477,186.167 51.587,186.167 51.661 C 186.167 51.786,184.739 52.093,184.458 52.029 C 184.390 52.013,184.333 52.075,184.333 52.167 C 184.333 52.390,180.055 52.390,179.917 52.167 C 179.860 52.075,179.649 52.000,179.448 51.999 C 179.248 51.998,178.882 51.893,178.636 51.765 C 178.390 51.636,177.959 51.481,177.678 51.419 C 177.397 51.357,177.167 51.238,177.167 51.153 C 177.167 51.069,177.052 51.000,176.911 51.000 C 176.771 51.000,176.613 50.887,176.560 50.750 C 176.508 50.612,176.360 50.500,176.233 50.500 C 176.106 50.500,175.802 50.275,175.557 50.000 C 175.312 49.725,175.011 49.500,174.889 49.500 C 174.767 49.500,174.667 49.438,174.667 49.362 C 174.667 49.286,174.329 48.857,173.917 48.408 C 173.504 47.958,173.167 47.501,173.167 47.393 C 173.167 47.284,173.110 47.169,173.042 47.139 C 172.883 47.068,172.167 45.610,172.167 45.357 C 172.167 45.252,172.100 45.167,172.019 45.167 C 171.938 45.167,171.818 44.810,171.753 44.375 C 171.689 43.940,171.550 43.479,171.444 43.351 C 171.186 43.038,171.192 38.024,171.450 37.864 C 171.551 37.801,171.687 37.394,171.753 36.958 C 171.818 36.523,171.938 36.167,172.019 36.167 C 172.100 36.167,172.167 36.081,172.167 35.977 C 172.167 35.752,172.843 34.336,173.083 34.056 C 173.175 33.949,173.437 33.612,173.665 33.306 C 174.310 32.441,176.041 30.833,176.328 30.833 C 176.428 30.833,176.552 30.725,176.602 30.594 C 176.653 30.462,176.913 30.306,177.181 30.247 C 177.448 30.188,177.667 30.081,177.667 30.008 C 177.667 29.935,177.967 29.828,178.333 29.769 C 178.700 29.711,179.000 29.593,179.000 29.509 C 179.000 29.157,185.077 29.093,185.303 29.442 " stroke="none" fill="#04acac" fill-rule="evenodd"></path><path id="path2" d="M237.341 3.426 C 237.689 3.845,238.130 4.028,238.266 3.808 C 238.338 3.691,238.312 3.660,238.198 3.730 C 238.096 3.794,237.859 3.693,237.673 3.506 C 237.275 3.108,237.028 3.049,237.341 3.426 M238.870 4.359 C 238.910 4.481,239.200 4.719,239.513 4.888 C 239.924 5.110,239.990 5.121,239.750 4.928 C 239.567 4.781,239.277 4.543,239.106 4.399 C 238.886 4.213,238.817 4.202,238.870 4.359 M254.012 5.875 C 254.020 6.376,254.060 6.489,254.149 6.261 C 254.267 5.960,254.205 5.167,254.064 5.167 C 254.029 5.167,254.005 5.485,254.012 5.875 M242.404 7.783 C 242.427 7.938,242.527 8.092,242.626 8.125 C 242.735 8.162,242.771 8.048,242.717 7.843 C 242.610 7.431,242.345 7.380,242.404 7.783 M255.219 11.389 C 255.282 11.557,255.333 11.725,255.333 11.764 C 255.333 11.802,255.444 11.833,255.579 11.833 C 255.714 11.833,255.941 12.058,256.083 12.333 C 256.368 12.884,256.444 12.943,256.444 12.614 C 256.444 12.494,256.143 12.100,255.775 11.739 C 255.402 11.374,255.156 11.219,255.219 11.389 M215.577 19.833 C 215.577 24.462,215.599 26.356,215.625 24.042 C 215.651 21.727,215.651 17.940,215.625 15.625 C 215.599 13.310,215.577 15.204,215.577 19.833 M244.924 12.321 C 244.863 12.419,244.901 12.500,245.008 12.500 C 245.115 12.500,245.160 12.611,245.107 12.747 C 245.052 12.892,245.146 13.067,245.336 13.168 C 245.609 13.314,245.643 13.295,245.552 13.046 C 245.352 12.494,245.040 12.134,244.924 12.321 M232.073 13.798 C 232.342 14.092,232.680 14.325,232.823 14.314 C 233.044 14.298,233.041 14.284,232.809 14.222 C 232.658 14.182,232.492 13.987,232.440 13.790 C 232.389 13.593,232.294 13.484,232.230 13.547 C 232.166 13.611,231.995 13.574,231.849 13.463 C 231.703 13.353,231.804 13.504,232.073 13.798 M260.688 14.516 C 260.967 14.694,261.939 14.717,261.764 14.542 C 261.696 14.473,261.374 14.407,261.049 14.394 C 260.656 14.379,260.535 14.420,260.688 14.516 M233.512 15.625 C 233.555 16.089,233.778 16.383,233.882 16.113 C 233.941 15.959,233.912 15.833,233.818 15.833 C 233.724 15.833,233.693 15.758,233.750 15.667 C 233.807 15.575,233.774 15.500,233.677 15.500 C 233.579 15.500,233.505 15.556,233.512 15.625 M234.167 17.462 C 234.167 17.656,234.229 17.852,234.305 17.899 C 234.469 18.000,234.447 17.392,234.281 17.226 C 234.218 17.163,234.167 17.269,234.167 17.462 M258.886 19.791 C 260.427 19.819,262.902 19.819,264.386 19.791 C 265.869 19.764,264.608 19.741,261.583 19.741 C 258.558 19.741,257.344 19.764,258.886 19.791 M275.803 19.791 C 277.573 19.819,280.423 19.818,282.136 19.791 C 283.849 19.764,282.400 19.742,278.917 19.742 C 275.433 19.742,274.032 19.764,275.803 19.791 M309.886 19.791 C 311.611 19.819,314.386 19.819,316.053 19.791 C 317.719 19.764,316.308 19.742,312.917 19.742 C 309.525 19.742,308.161 19.764,309.886 19.791 M373.135 19.791 C 374.539 19.819,376.789 19.819,378.135 19.791 C 379.482 19.763,378.333 19.740,375.583 19.741 C 372.833 19.741,371.732 19.763,373.135 19.791 M385.929 20.510 C 385.753 20.688,385.691 20.833,385.792 20.833 C 385.969 20.833,386.500 20.386,386.500 20.238 C 386.500 20.078,386.231 20.206,385.929 20.510 M305.831 21.000 C 305.699 21.271,305.732 21.835,305.871 21.695 C 305.959 21.607,305.995 21.396,305.952 21.226 C 305.908 21.056,305.854 20.954,305.831 21.000 M355.667 22.657 C 355.667 22.754,355.782 22.833,355.922 22.833 C 356.062 22.833,356.220 22.946,356.273 23.083 C 356.326 23.221,356.436 23.333,356.518 23.333 C 356.822 23.333,356.651 23.063,356.167 22.777 C 355.891 22.614,355.667 22.560,355.667 22.657 M382.397 23.542 C 382.329 23.656,382.157 23.938,382.015 24.167 C 381.774 24.554,381.775 24.568,382.038 24.360 C 382.193 24.237,382.366 23.992,382.422 23.816 C 382.478 23.639,382.605 23.545,382.704 23.607 C 382.812 23.673,382.837 23.640,382.766 23.526 C 382.615 23.281,382.549 23.284,382.397 23.542 M317.250 24.667 C 317.193 24.758,317.192 24.833,317.246 24.833 C 317.300 24.833,317.263 25.002,317.163 25.208 C 316.989 25.568,316.992 25.570,317.241 25.260 C 317.383 25.082,317.500 24.838,317.500 24.718 C 317.500 24.458,317.392 24.436,317.250 24.667 M381.492 25.014 C 381.220 25.523,381.408 25.582,381.731 25.089 C 381.883 24.857,381.934 24.667,381.843 24.667 C 381.752 24.667,381.595 24.823,381.492 25.014 M324.249 27.834 C 324.083 28.018,323.986 28.208,324.034 28.256 C 324.082 28.304,324.246 28.154,324.398 27.922 C 324.730 27.415,324.664 27.376,324.249 27.834 M348.000 29.412 C 348.000 29.558,348.829 29.976,348.898 29.864 C 348.943 29.791,348.759 29.649,348.490 29.547 C 348.220 29.445,348.000 29.385,348.000 29.412 M323.238 29.628 C 323.064 29.747,322.785 30.333,322.903 30.333 C 322.935 30.333,323.085 30.146,323.235 29.917 C 323.524 29.475,323.525 29.431,323.238 29.628 M314.452 31.167 C 314.404 31.350,314.424 31.536,314.497 31.581 C 314.569 31.626,314.664 31.476,314.708 31.248 C 314.802 30.756,314.578 30.685,314.452 31.167 M350.333 31.464 C 350.333 31.637,351.143 32.420,351.218 32.320 C 351.247 32.282,351.060 32.041,350.802 31.785 C 350.544 31.529,350.333 31.385,350.333 31.464 M322.154 31.708 C 321.968 32.316,322.073 32.486,322.333 32.000 C 322.454 31.774,322.456 31.667,322.339 31.667 C 322.244 31.667,322.161 31.685,322.154 31.708 M314.033 32.367 C 313.804 32.596,313.759 33.065,313.980 32.929 C 314.106 32.851,314.364 32.167,314.268 32.167 C 314.249 32.167,314.143 32.257,314.033 32.367 M384.264 32.687 C 384.101 32.964,384.010 33.232,384.062 33.285 C 384.115 33.337,384.230 33.190,384.318 32.957 C 384.406 32.725,384.573 32.503,384.689 32.465 C 384.821 32.421,384.837 32.355,384.731 32.290 C 384.637 32.232,384.428 32.411,384.264 32.687 M278.056 33.417 C 278.056 33.554,278.122 33.667,278.204 33.667 C 278.286 33.667,278.299 33.753,278.234 33.859 C 278.160 33.978,278.188 34.006,278.308 33.932 C 278.446 33.847,278.451 33.721,278.328 33.490 C 278.120 33.101,278.056 33.084,278.056 33.417 M239.042 33.787 C 238.927 33.828,238.833 33.923,238.833 33.999 C 238.833 34.173,239.231 34.123,239.306 33.941 C 239.382 33.754,239.288 33.699,239.042 33.787 M332.888 33.855 C 332.935 34.004,332.898 34.202,332.806 34.294 C 332.693 34.407,332.711 34.505,332.860 34.591 C 332.983 34.662,333.028 34.659,332.960 34.584 C 332.892 34.509,332.906 34.363,332.992 34.260 C 333.089 34.142,333.083 33.981,332.975 33.828 C 332.829 33.621,332.815 33.625,332.888 33.855 M321.119 34.788 C 321.037 35.214,321.047 35.223,321.266 34.923 C 321.534 34.557,321.567 34.333,321.353 34.333 C 321.272 34.333,321.166 34.538,321.119 34.788 M337.387 35.292 C 340.121 35.317,344.546 35.317,347.220 35.292 C 349.895 35.266,347.658 35.245,342.250 35.245 C 336.842 35.245,334.653 35.266,337.387 35.292 M320.625 37.587 C 320.581 37.819,320.594 38.038,320.654 38.076 C 320.715 38.113,320.781 37.924,320.801 37.655 C 320.847 37.056,320.735 37.013,320.625 37.587 M292.686 38.417 C 292.695 38.708,293.308 39.928,293.314 39.667 C 293.317 39.529,293.176 39.154,293.000 38.833 C 292.824 38.512,292.683 38.325,292.686 38.417 M215.579 50.333 C 215.579 56.612,215.600 59.181,215.625 56.042 C 215.650 52.902,215.650 47.765,215.625 44.625 C 215.600 41.485,215.579 44.054,215.579 50.333 M363.379 40.667 C 363.379 41.079,363.411 41.248,363.451 41.042 C 363.491 40.835,363.491 40.498,363.451 40.292 C 363.411 40.085,363.379 40.254,363.379 40.667 M381.745 51.083 C 381.745 56.858,381.766 59.197,381.792 56.280 C 381.817 53.363,381.817 48.638,381.792 45.780 C 381.766 42.922,381.745 45.308,381.745 51.083 M236.310 41.525 C 236.386 41.731,236.537 41.916,236.645 41.937 C 236.753 41.958,236.765 41.937,236.671 41.890 C 236.577 41.844,236.500 41.704,236.500 41.579 C 236.500 41.455,236.426 41.307,236.336 41.251 C 236.231 41.187,236.222 41.287,236.310 41.525 M297.587 42.035 C 297.385 42.669,297.353 42.870,297.471 42.751 C 297.533 42.690,297.590 42.589,297.598 42.528 C 297.606 42.467,297.671 42.282,297.743 42.118 C 297.815 41.953,297.837 41.782,297.792 41.736 C 297.746 41.691,297.654 41.825,297.587 42.035 M282.449 43.988 C 282.498 44.177,282.628 44.274,282.762 44.222 C 282.956 44.148,282.955 44.098,282.758 43.900 C 282.439 43.581,282.349 43.607,282.449 43.988 M238.118 44.331 C 238.166 44.514,238.268 44.624,238.345 44.576 C 238.509 44.475,238.360 44.000,238.164 44.000 C 238.091 44.000,238.070 44.149,238.118 44.331 M283.023 45.161 C 283.128 45.461,283.274 45.620,283.383 45.553 C 283.513 45.472,283.509 45.420,283.367 45.372 C 283.257 45.336,283.167 45.204,283.167 45.079 C 283.167 44.955,283.095 44.809,283.007 44.754 C 282.912 44.696,282.918 44.861,283.023 45.161 M308.535 45.072 C 308.244 45.712,308.288 46.007,308.589 45.430 C 308.728 45.163,308.819 44.873,308.790 44.787 C 308.761 44.700,308.646 44.828,308.535 45.072 M225.000 45.561 C 225.000 45.711,225.064 45.833,225.141 45.833 C 225.219 45.833,225.364 46.002,225.463 46.208 C 225.563 46.415,225.649 46.483,225.655 46.360 C 225.662 46.237,225.517 45.945,225.333 45.712 C 225.087 45.398,225.000 45.359,225.000 45.561 M239.606 46.297 C 239.550 46.388,239.615 46.555,239.752 46.668 C 240.023 46.893,240.079 46.717,239.852 46.357 C 239.765 46.220,239.668 46.196,239.606 46.297 M351.701 48.448 C 351.503 48.695,351.376 48.932,351.419 48.975 C 351.514 49.070,352.167 48.341,352.167 48.141 C 352.167 47.917,352.086 47.970,351.701 48.448 M349.950 50.222 C 349.903 50.344,349.967 50.444,350.092 50.444 C 350.217 50.444,350.284 50.388,350.242 50.320 C 350.199 50.251,350.259 50.157,350.374 50.111 C 350.507 50.057,350.484 50.022,350.309 50.013 C 350.159 50.006,349.997 50.100,349.950 50.222 M348.667 51.172 C 348.667 51.261,348.535 51.339,348.375 51.346 C 348.215 51.354,348.165 51.393,348.264 51.435 C 348.364 51.476,348.620 51.445,348.833 51.366 C 349.157 51.246,349.175 51.206,348.943 51.117 C 348.791 51.058,348.667 51.083,348.667 51.172 M229.833 52.575 C 229.833 52.846,230.390 53.485,230.543 53.390 C 230.650 53.324,230.594 53.192,230.400 53.051 C 230.226 52.923,230.108 52.768,230.137 52.705 C 230.167 52.643,230.111 52.565,230.012 52.532 C 229.914 52.499,229.833 52.519,229.833 52.575 M341.930 52.652 C 342.101 52.823,342.833 52.837,342.833 52.670 C 342.833 52.573,342.612 52.512,342.340 52.532 C 342.069 52.553,341.885 52.607,341.930 52.652 M343.566 52.694 C 343.519 52.771,343.635 52.833,343.823 52.833 C 344.012 52.833,344.167 52.771,344.167 52.694 C 344.167 52.618,344.051 52.556,343.909 52.556 C 343.768 52.556,343.613 52.618,343.566 52.694 M324.853 54.536 C 324.842 54.693,324.982 54.901,325.163 54.998 C 325.431 55.142,325.475 55.128,325.395 54.921 C 325.342 54.782,325.237 54.707,325.162 54.753 C 325.087 54.799,324.991 54.705,324.949 54.544 C 324.879 54.275,324.870 54.274,324.853 54.536 M359.625 55.615 C 359.465 55.657,359.333 55.794,359.333 55.921 C 359.333 56.047,359.211 56.218,359.062 56.302 C 358.913 56.386,358.856 56.491,358.937 56.535 C 359.017 56.580,359.297 56.366,359.558 56.058 C 359.819 55.751,360.007 55.509,359.975 55.519 C 359.943 55.530,359.785 55.573,359.625 55.615 M287.786 56.336 C 287.880 56.695,288.167 56.962,288.167 56.690 C 288.167 56.406,287.969 56.000,287.831 56.000 C 287.758 56.000,287.737 56.151,287.786 56.336 M358.444 56.778 C 358.285 56.937,358.307 57.167,358.482 57.167 C 358.564 57.167,358.674 57.054,358.727 56.917 C 358.824 56.663,358.647 56.575,358.444 56.778 M327.190 57.278 C 327.291 57.400,327.438 57.500,327.515 57.500 C 327.593 57.500,327.618 57.400,327.571 57.278 C 327.524 57.156,327.378 57.056,327.245 57.056 C 327.064 57.056,327.051 57.110,327.190 57.278 M289.012 59.115 C 289.049 59.548,289.310 59.915,289.322 59.552 C 289.328 59.351,289.258 59.140,289.167 59.083 C 289.075 59.027,289.005 59.041,289.012 59.115 M302.336 59.708 C 302.338 60.012,302.369 60.035,302.500 59.833 C 302.709 59.510,302.709 59.333,302.500 59.333 C 302.408 59.333,302.334 59.502,302.336 59.708 M353.198 60.760 C 353.078 60.896,352.898 60.957,352.798 60.895 C 352.688 60.827,352.663 60.859,352.734 60.975 C 352.870 61.195,353.500 60.937,353.500 60.661 C 353.500 60.451,353.460 60.464,353.198 60.760 " stroke="none" fill="#f4f4f4" fill-rule="evenodd"></path><path id="path3" d="M258.792 61.958 C 260.281 61.986,262.719 61.986,264.208 61.958 C 265.698 61.930,264.479 61.908,261.500 61.908 C 258.521 61.908,257.302 61.930,258.792 61.958 M293.302 61.958 C 294.798 61.986,297.198 61.986,298.635 61.958 C 300.073 61.930,298.850 61.908,295.917 61.908 C 292.983 61.908,291.807 61.930,293.302 61.958 M373.292 61.958 C 374.781 61.986,377.219 61.986,378.708 61.958 C 380.198 61.930,378.979 61.908,376.000 61.908 C 373.021 61.908,371.802 61.930,373.292 61.958 " stroke="none" fill="#44d0d0" fill-rule="evenodd"></path><path id="path4" d="M159.392 40.667 C 159.392 41.446,159.420 41.765,159.455 41.375 C 159.490 40.985,159.490 40.348,159.455 39.958 C 159.420 39.569,159.392 39.887,159.392 40.667 " stroke="none" fill="#04d4d0" fill-rule="evenodd"></path></g></svg>